<?xml version="1.0" encoding="utf-8"?>
<!DOCTYPE svg PUBLIC "-//W3C//DTD SVG 20010904//EN" "http://www.w3.org/TR/2001/REC-SVG-20010904/DTD/svg10.dtd">
<svg version="1.0" xmlns="http://www.w3.org/2000/svg" width="502pt" height="502pt" viewBox="0 0 502 502" preserveAspectRatio="xMidYMid meet">
<g fill="#AA1C19FE">
<path d="M 236.50 449.39 C 201.59 446.73 178.76 442.21 172.53 436.73 C 170.15 434.63 167.95 426.85 165.70 412.50 C 165.44 410.85 164.30 405.00 163.16 399.50 C 162.01 394.00 158.78 377.57 155.98 363.00 C 153.17 348.43 149.79 331.10 148.47 324.50 C 147.14 317.90 145.82 310.93 145.53 309.00 C 145.24 307.07 142.77 294.70 140.05 281.50 C 137.32 268.30 134.65 254.80 134.10 251.50 C 133.56 248.20 132.30 241.80 131.31 237.27 L 129.50 229.05 L 124.29 226.45 C 117.05 222.85 114.57 218.66 115.25 211.16 C 115.72 205.99 115.51 205.18 112.88 202.03 C 109.41 197.87 108.95 192.08 111.87 189.29 C 112.89 188.31 114.03 185.84 114.40 183.81 C 115.17 179.58 119.34 175.52 123.98 174.51 C 127.38 173.76 127.55 173.31 125.47 170.56 C 123.37 167.79 123.64 165.58 126.50 162.18 C 128.13 160.24 129.00 157.99 129.00 155.68 C 129.00 150.92 133.10 146.00 137.08 146.00 C 139.40 146.00 140.24 145.36 141.33 142.75 C 142.08 140.96 143.43 138.89 144.33 138.14 C 145.84 136.89 145.81 136.58 143.99 134.25 C 140.07 129.28 142.21 124.23 149.39 121.49 C 152.93 120.14 154.21 120.04 156.02 121.01 C 157.77 121.95 158.77 121.93 160.64 120.93 C 162.70 119.82 163.41 119.92 165.76 121.62 C 169.52 124.33 171.50 123.60 172.88 119.00 C 174.23 114.50 178.32 111.15 183.49 110.31 C 186.59 109.81 187.00 109.39 187.00 106.77 C 187.00 104.71 188.07 102.73 190.48 100.32 C 193.44 97.36 194.54 96.89 197.88 97.13 C 201.20 97.37 202.28 96.91 204.81 94.21 C 209.98 88.66 217.22 90.02 221.50 97.33 C 222.44 98.93 222.72 98.93 226.22 97.27 C 228.88 96.00 230.27 94.50 231.11 92.00 C 233.18 85.79 235.77 83.00 239.45 83.00 C 241.27 83.00 243.31 82.33 243.99 81.51 C 244.68 80.69 247.05 79.52 249.27 78.93 C 252.59 78.03 253.99 78.14 257.04 79.52 C 261.21 81.40 262.81 83.84 263.22 89.00 C 263.49 92.37 263.68 92.52 268.14 93.03 C 273.25 93.62 275.75 95.22 277.09 98.74 C 277.94 100.97 278.10 101.00 280.94 99.53 C 284.87 97.50 286.84 97.60 290.88 100.07 L 294.26 102.13 L 296.88 99.70 C 300.94 95.93 302.93 95.20 306.73 96.05 C 312.18 97.28 315.00 100.56 315.00 105.67 C 315.00 108.70 315.42 110.00 316.39 110.00 C 317.15 110.00 318.83 110.85 320.12 111.90 C 322.43 113.77 322.49 113.76 325.31 111.40 C 327.33 109.70 329.37 109.00 332.33 109.02 C 335.39 109.03 336.10 109.29 335.00 110.00 C 334.18 110.53 332.28 110.98 330.80 110.98 C 329.04 110.99 326.92 112.21 324.74 114.46 L 321.38 117.91 L 319.58 114.86 C 318.09 112.35 317.26 111.88 314.90 112.23 L 312.02 112.65 L 312.63 107.49 C 313.19 102.71 313.03 102.17 310.48 100.17 C 305.63 96.34 299.43 98.13 296.98 104.05 C 295.87 106.73 293.00 108.23 293.00 106.14 C 293.00 104.40 287.66 100.00 285.55 100.00 C 283.34 100.00 279.10 103.83 277.21 107.53 C 275.68 110.50 277.46 113.17 280.46 112.42 C 282.93 111.80 287.00 113.41 287.00 115.01 C 287.00 115.53 288.93 117.87 291.28 120.22 C 294.28 123.22 297.30 125.05 301.41 126.34 C 307.19 128.16 307.29 128.16 310.03 126.14 C 314.25 123.02 317.59 122.51 320.76 124.51 C 326.81 128.34 328.44 132.87 325.43 137.47 C 324.23 139.29 324.11 140.34 324.93 141.87 C 326.86 145.48 326.17 149.78 323.12 153.20 C 320.76 155.83 319.58 156.38 316.69 156.19 C 314.74 156.05 312.87 156.41 312.52 156.97 C 312.17 157.54 312.75 158.00 313.82 158.00 C 314.89 158.00 317.37 159.78 319.33 161.95 C 322.89 165.88 322.91 165.89 326.04 164.33 C 332.09 161.31 339.18 164.13 344.00 171.46 L 346.50 175.26 L 347.11 171.50 C 347.53 168.96 348.91 166.62 351.36 164.30 C 355.81 160.11 355.94 157.74 351.90 154.06 C 349.40 151.77 347.62 151.13 342.65 150.75 C 335.80 150.22 333.59 151.23 334.42 154.53 C 335.10 157.23 334.12 158.34 332.34 156.87 C 330.38 155.24 330.70 152.30 333.10 149.90 C 334.76 148.24 335.88 147.94 338.35 148.50 C 340.08 148.90 342.97 149.15 344.76 149.08 C 346.55 149.00 348.91 149.42 350.01 150.00 C 352.34 151.25 355.00 150.15 359.25 146.19 C 362.39 143.26 362.84 139.36 360.25 137.39 C 359.29 136.66 356.19 136.05 353.38 136.03 C 348.49 136.00 348.22 135.86 347.65 132.99 C 346.38 126.63 338.00 126.54 334.84 132.84 C 332.56 137.39 332.00 137.76 332.00 134.74 C 332.00 133.32 333.17 130.77 334.59 129.08 C 336.83 126.41 337.83 126.00 342.10 126.00 C 346.59 126.00 347.21 125.71 349.01 122.75 C 351.04 119.43 351.48 116.42 350.38 113.54 C 349.49 111.23 342.17 107.73 339.34 108.28 C 336.06 108.90 335.30 107.21 338.50 106.41 C 341.98 105.54 349.43 108.48 351.42 111.52 C 353.64 114.90 353.39 118.80 350.62 123.97 C 348.70 127.56 348.44 128.95 349.22 131.21 C 350.11 133.75 350.63 134.00 355.10 134.00 C 358.67 134.00 360.54 134.54 362.00 136.00 C 364.23 138.23 364.63 143.02 362.83 145.90 C 361.86 147.45 362.08 148.31 364.08 150.83 C 365.41 152.51 368.00 154.41 369.83 155.05 C 373.96 156.49 377.26 163.30 376.87 169.60 C 376.67 172.89 377.18 174.43 379.34 176.99 C 381.60 179.68 381.97 180.87 381.50 184.03 C 381.17 186.21 381.37 188.11 381.96 188.48 C 382.53 188.83 383.00 191.16 383.00 193.66 C 383.00 197.43 382.48 198.68 379.95 201.05 L 376.90 203.90 L 379.94 205.47 C 383.42 207.27 384.52 210.42 383.53 215.71 C 382.67 220.27 376.48 226.75 372.15 227.62 C 370.45 227.96 368.83 228.97 368.55 229.87 C 368.27 230.77 364.23 251.30 359.57 275.50 C 351.52 317.27 343.54 358.61 333.40 411.00 C 330.63 425.32 328.24 435.18 327.29 436.23 C 323.73 440.17 306.29 444.83 285.48 447.40 C 273.08 448.93 245.26 450.06 236.50 449.39ZM 241.00 430.50 L 241.00 421.00 L 250.46 421.00 L 259.92 421.00 L 260.21 430.25 L 260.50 439.50 L 267.43 439.27 C 271.25 439.14 274.70 438.69 275.11 438.27 C 275.52 437.85 276.22 433.23 276.68 428.02 L 277.50 418.53 L 286.38 415.35 L 295.27 412.16 L 294.60 418.33 C 294.23 421.72 293.65 427.36 293.31 430.86 L 292.69 437.23 L 296.09 436.53 C 303.73 434.97 307.12 433.83 307.52 432.70 C 308.21 430.74 330.00 300.19 330.00 298.04 C 330.00 296.63 328.95 295.78 326.25 295.02 C 321.78 293.77 319.28 291.98 316.89 288.33 L 315.12 285.64 L 313.99 288.07 C 311.68 293.05 308.50 294.32 298.08 294.41 C 289.55 294.49 288.14 294.25 285.60 292.25 C 282.67 289.95 280.00 289.30 280.00 290.88 C 280.00 292.50 273.85 294.33 267.65 294.54 C 264.27 294.66 259.40 295.59 256.83 296.59 C 252.84 298.16 251.38 298.27 246.83 297.32 C 243.77 296.69 241.04 296.59 240.42 297.09 C 237.54 299.42 225.54 302.11 219.17 301.86 C 213.16 301.61 212.25 301.84 209.94 304.15 C 208.53 305.56 205.00 307.50 202.09 308.47 C 195.67 310.60 192.73 309.65 190.67 304.78 C 188.26 299.10 180.52 293.15 178.35 295.32 C 178.04 295.63 179.23 299.01 180.99 302.83 C 184.91 311.34 184.33 313.08 176.39 316.59 C 169.96 319.43 167.32 319.60 164.81 317.32 C 162.77 315.48 149.00 274.03 149.00 269.75 C 149.00 268.15 149.99 266.37 151.56 265.13 C 154.68 262.68 172.07 257.14 181.10 255.73 C 189.60 254.39 194.44 256.41 197.56 262.57 L 199.61 266.63 L 203.06 262.75 C 205.93 259.51 207.74 258.54 214.00 256.91 C 222.17 254.78 228.52 255.33 233.53 258.61 C 235.65 260.00 236.00 260.02 236.00 258.75 C 236.00 255.56 239.96 252.27 245.78 250.64 C 257.59 247.33 266.85 249.06 272.82 255.69 L 275.14 258.27 L 278.82 254.74 C 286.14 247.72 293.15 245.48 302.75 247.09 C 306.46 247.72 310.18 248.16 311.00 248.07 C 311.82 247.98 313.70 247.91 315.17 247.91 C 317.21 247.91 318.07 247.23 318.84 245.03 C 320.22 241.08 323.33 239.64 328.83 240.39 C 334.40 241.15 336.98 243.35 337.07 247.40 C 337.13 250.10 337.26 250.24 338.07 248.50 C 339.55 245.32 343.93 218.58 343.11 217.73 C 342.05 216.63 321.87 212.84 320.30 213.44 C 319.52 213.74 319.00 215.60 319.00 218.10 L 319.00 222.26 L 315.25 221.62 C 313.19 221.27 307.11 220.45 301.75 219.81 L 292.00 218.63 L 292.00 214.36 C 292.00 210.32 291.83 210.06 288.75 209.56 C 286.96 209.27 281.00 208.91 275.50 208.76 L 265.50 208.50 L 265.00 212.50 C 264.63 215.50 264.06 216.48 262.75 216.42 C 261.79 216.37 255.18 216.26 248.06 216.17 L 235.12 216.00 L 234.81 212.25 L 234.50 208.50 L 223.50 208.77 C 206.40 209.20 206.17 209.27 205.81 214.28 L 205.50 218.50 L 199.00 219.10 C 195.43 219.44 189.69 220.06 186.25 220.50 L 180.00 221.28 L 179.98 218.39 C 179.96 213.16 179.40 213.00 168.10 215.03 C 154.03 217.56 154.62 217.21 155.33 222.42 L 155.94 226.81 L 148.36 230.40 C 144.20 232.38 140.66 234.00 140.49 234.00 C 140.32 234.00 139.89 231.84 139.53 229.20 C 138.71 223.28 137.82 221.75 135.67 222.57 C 133.60 223.37 133.62 224.31 135.96 235.48 C 136.99 240.42 137.62 244.80 137.37 245.21 C 137.12 245.62 137.35 246.78 137.88 247.78 C 138.42 248.79 139.08 251.38 139.35 253.55 C 139.61 255.72 140.08 258.40 140.38 259.50 C 142.22 266.18 147.99 297.13 148.00 300.30 C 148.00 302.39 148.63 305.32 149.40 306.81 C 150.17 308.31 151.11 311.55 151.47 314.01 C 151.84 316.48 152.32 319.62 152.53 321.00 C 152.75 322.38 156.93 343.52 161.83 368.00 C 166.72 392.48 171.35 415.83 172.11 419.89 C 173.42 426.82 175.74 430.59 177.57 428.76 C 177.94 428.39 176.39 418.50 174.12 406.77 C 171.85 395.05 170.00 384.97 170.00 384.38 C 170.00 383.79 173.44 386.65 177.64 390.73 L 185.29 398.16 L 188.24 415.83 C 189.87 425.55 191.31 433.62 191.46 433.77 C 192.07 434.42 206.30 437.03 206.76 436.58 C 207.19 436.14 206.21 426.08 204.41 412.50 C 204.12 410.30 204.25 409.00 204.69 409.60 C 205.90 411.25 209.85 413.15 215.99 415.06 C 222.25 417.01 222.39 417.30 223.53 431.20 L 224.16 438.89 L 228.33 439.27 C 230.62 439.48 234.41 439.73 236.75 439.83 L 241.00 440.00 L 241.00 430.50ZM 198.76 375.64 C 196.24 373.69 193.87 367.78 187.53 347.59 C 184.36 337.51 182.03 328.32 182.20 326.59 C 182.46 323.86 183.36 323.05 189.88 319.68 C 193.94 317.57 200.64 314.99 204.77 313.93 C 211.58 312.19 212.78 312.14 217.69 313.42 C 224.65 315.24 227.69 317.28 229.69 321.49 L 231.31 324.87 L 235.75 319.94 C 239.25 316.05 241.36 314.66 245.74 313.39 C 253.15 311.23 259.73 311.93 264.20 315.34 C 266.12 316.80 267.93 318.00 268.23 318.00 C 268.53 318.00 269.08 316.39 269.45 314.42 C 270.27 310.04 274.30 308.01 282.22 307.99 C 285.12 307.98 289.49 307.28 291.93 306.43 C 300.75 303.36 309.26 307.70 314.13 317.78 C 317.26 324.24 317.35 336.72 314.31 342.50 C 310.48 349.80 302.64 354.56 295.74 353.78 L 291.32 353.28 L 292.12 357.39 C 293.42 364.09 293.14 365.95 290.43 368.66 C 288.11 370.98 287.28 371.19 281.80 370.79 C 274.32 370.25 273.33 369.10 272.42 359.87 C 271.79 353.48 270.93 351.69 269.55 353.92 C 269.24 354.43 266.85 356.04 264.24 357.52 C 258.67 360.66 249.97 361.80 244.74 360.08 C 239.88 358.48 232.47 350.33 230.90 344.88 C 230.21 342.47 229.49 340.31 229.31 340.07 C 229.12 339.83 227.50 341.18 225.69 343.07 C 221.57 347.37 216.31 351.77 213.59 353.19 C 212.44 353.78 211.36 354.38 211.20 354.52 C 211.03 354.66 212.31 357.47 214.04 360.76 C 217.03 366.47 217.10 366.90 215.64 369.72 C 213.35 374.15 201.98 378.14 198.76 375.64ZM 208.28 370.09 C 212.30 368.55 212.47 366.88 209.17 361.29 C 204.06 352.62 204.08 352.49 210.98 349.01 C 226.54 341.16 232.36 328.51 224.06 320.56 C 218.81 315.52 209.47 316.03 194.59 322.17 C 184.51 326.33 184.80 325.78 187.65 335.29 C 191.48 348.05 198.17 368.30 199.23 370.36 C 200.24 372.31 202.63 372.24 208.28 370.09ZM 200.58 339.75 C 197.39 331.86 197.52 331.10 202.49 328.90 C 205.49 327.57 208.64 326.99 211.77 327.20 C 216.26 327.48 216.52 327.66 216.80 330.61 C 217.17 334.37 213.66 338.98 208.61 341.38 C 203.65 343.73 202.06 343.41 200.58 339.75ZM 285.57 365.97 C 288.16 364.99 288.25 364.73 287.63 359.72 C 287.28 356.85 286.70 352.04 286.33 349.02 L 285.67 343.55 L 288.91 346.27 C 295.44 351.76 306.71 349.15 310.64 341.23 C 313.53 335.44 313.22 323.78 310.03 318.20 C 304.76 308.96 295.00 307.25 287.34 314.21 C 285.20 316.16 285.19 316.16 284.51 314.03 C 283.93 312.20 283.19 311.94 279.27 312.20 C 276.34 312.39 274.33 313.10 273.66 314.17 C 272.43 316.12 275.57 362.33 277.12 365.23 C 278.19 367.22 281.53 367.51 285.57 365.97ZM 289.23 339.33 C 287.15 338.50 285.00 333.37 285.00 329.27 C 285.00 322.30 290.07 318.08 295.99 320.15 C 301.81 322.17 304.07 332.09 299.93 337.37 C 298.33 339.40 297.01 339.98 294.18 339.92 C 292.15 339.88 289.93 339.61 289.23 339.33ZM 297.24 332.79 C 297.86 330.92 297.73 329.20 296.81 327.30 C 294.38 322.22 289.60 323.57 289.60 329.34 C 289.60 335.88 295.36 338.48 297.24 332.79ZM 262.77 353.43 C 269.81 349.92 272.52 345.44 272.41 337.50 C 272.18 320.68 257.78 312.01 242.94 319.76 C 232.13 325.41 229.69 338.97 237.57 349.59 C 242.63 356.42 253.46 358.07 262.77 353.43ZM 248.75 345.92 C 246.09 344.37 244.00 339.57 244.00 335.00 C 244.00 329.66 247.40 326.00 252.37 326.00 C 258.69 326.00 263.77 335.31 261.05 341.89 C 259.22 346.31 252.94 348.36 248.75 345.92ZM 257.00 337.90 C 257.00 333.56 255.33 331.00 252.50 331.00 C 249.55 331.00 248.00 333.56 248.71 337.29 C 249.91 343.55 257.00 344.07 257.00 337.90ZM 325.00 426.75 C 325.53 425.51 330.22 402.23 335.42 375.00 C 340.63 347.77 349.18 303.18 354.44 275.89 C 359.70 248.60 364.00 225.28 364.00 224.07 C 364.00 222.36 363.50 221.93 361.77 222.18 C 359.33 222.53 360.37 218.14 350.05 272.00 C 347.89 283.27 344.04 303.30 341.50 316.50 C 338.95 329.70 334.85 351.07 332.38 364.00 C 329.91 376.93 326.11 396.62 323.94 407.76 C 321.77 418.91 320.00 428.25 320.00 428.51 C 320.00 430.11 324.20 428.63 325.00 426.75ZM 176.69 312.48 C 178.51 311.72 180.00 310.67 180.00 310.13 C 180.00 309.60 178.44 305.91 176.54 301.94 C 173.77 296.17 173.29 294.33 174.14 292.74 C 175.02 291.09 175.94 290.85 179.59 291.26 C 185.02 291.87 190.31 295.73 193.03 301.06 C 195.21 305.32 195.95 305.58 201.10 303.87 C 206.92 301.93 207.62 300.71 205.56 296.13 C 202.37 289.05 195.57 284.00 189.24 284.00 L 186.61 284.00 L 189.68 280.75 C 195.81 274.28 196.77 268.25 192.48 263.16 C 189.17 259.22 184.16 258.39 176.18 260.45 C 168.92 262.34 154.21 267.85 153.53 268.94 C 153.11 269.62 163.93 304.71 166.92 312.35 C 168.13 315.46 169.52 315.48 176.69 312.48ZM 167.70 279.64 C 166.88 277.24 166.52 274.77 166.90 274.17 C 167.93 272.49 175.77 270.00 180.02 270.00 C 184.68 270.00 185.91 272.29 183.21 275.95 C 181.36 278.46 172.60 283.93 170.34 283.98 C 169.71 283.99 168.52 282.04 167.70 279.64ZM 234.76 295.14 C 237.10 293.94 239.55 292.10 240.20 291.05 C 241.36 289.19 241.43 289.19 243.83 291.08 C 249.06 295.20 259.76 292.58 263.06 286.37 L 264.50 283.67 L 265.00 287.08 C 265.49 290.44 265.59 290.50 270.26 290.44 C 277.62 290.34 277.78 289.86 275.32 275.34 C 273.12 262.28 271.89 259.50 266.61 255.56 C 263.04 252.89 252.42 252.81 245.66 255.39 L 241.00 257.17 L 241.00 262.52 C 241.00 265.47 241.38 268.12 241.85 268.41 C 242.32 268.70 244.22 267.81 246.07 266.45 C 250.11 263.47 256.36 261.62 259.63 262.44 C 263.45 263.40 262.37 265.71 257.25 267.52 C 244.12 272.17 240.03 275.44 239.97 281.33 C 239.94 283.93 239.76 284.19 238.94 282.78 C 238.03 281.23 237.51 281.39 233.51 284.44 C 231.07 286.30 227.71 288.12 226.04 288.49 C 222.62 289.24 216.77 287.64 214.96 285.45 C 213.93 284.21 214.60 284.00 219.49 284.00 C 232.27 284.00 239.62 274.45 233.97 265.19 C 228.02 255.43 209.50 258.13 203.97 269.57 C 202.16 273.29 201.85 275.24 202.31 279.73 C 203.02 286.56 207.11 293.52 212.00 296.21 C 216.78 298.84 228.65 298.28 234.76 295.14ZM 251.67 282.33 C 251.30 281.97 251.00 280.65 251.00 279.41 C 251.00 273.89 262.08 270.56 262.83 275.85 C 263.31 279.22 259.43 283.00 255.49 283.00 C 253.75 283.00 252.03 282.70 251.67 282.33ZM 212.46 276.94 C 210.42 273.64 215.73 268.00 220.88 268.00 C 223.37 268.00 226.00 270.57 226.00 273.00 C 226.00 276.25 223.20 278.00 217.99 278.00 C 215.31 278.00 212.82 277.52 212.46 276.94ZM 341.89 290.63 C 342.52 289.88 343.14 287.51 343.26 285.38 L 343.50 281.50 L 337.00 281.50 L 330.50 281.50 L 330.51 272.32 C 330.52 267.27 330.87 262.80 331.28 262.38 C 331.70 261.96 334.85 261.59 338.27 261.56 L 344.50 261.50 L 344.50 258.00 C 344.50 255.01 344.14 254.46 342.00 254.23 C 333.20 253.28 333.00 253.17 333.00 249.06 C 333.00 244.81 331.96 244.00 326.46 244.00 C 323.37 244.00 322.99 244.34 322.02 247.94 C 321.05 251.54 320.63 251.91 317.23 252.19 C 313.95 252.46 313.46 252.85 313.17 255.39 C 312.81 258.55 314.22 259.96 317.75 259.98 C 320.37 260.00 320.39 260.24 318.94 272.13 C 317.67 282.44 318.95 286.78 324.19 289.97 C 328.22 292.43 340.03 292.87 341.89 290.63ZM 309.65 287.78 C 310.89 286.54 311.10 285.13 310.57 281.59 C 310.19 279.06 309.37 277.00 308.75 277.00 C 308.14 277.00 305.62 277.97 303.16 279.17 C 299.03 281.17 298.38 281.22 294.62 279.92 C 292.23 279.08 290.01 277.47 289.23 276.00 C 287.30 272.32 288.28 265.00 291.01 262.79 C 293.80 260.53 301.70 260.40 304.78 262.56 C 306.00 263.41 307.40 263.87 307.89 263.57 C 309.11 262.81 310.18 256.62 309.42 254.65 C 307.98 250.91 294.20 249.82 287.38 252.91 C 279.26 256.60 275.41 265.71 277.43 276.48 C 278.22 280.67 283.20 286.72 287.48 288.67 C 291.75 290.61 307.45 289.98 309.65 287.78ZM 303.50 274.00 C 307.42 271.41 310.52 271.47 312.42 274.19 C 313.26 275.39 314.14 276.18 314.36 275.94 C 314.59 275.70 315.09 272.69 315.49 269.25 C 316.07 264.15 315.93 263.00 314.76 263.00 C 313.97 263.00 312.84 264.06 312.25 265.36 C 310.76 268.63 307.92 269.09 302.98 266.88 C 295.96 263.74 293.00 264.81 293.00 270.50 C 293.00 272.21 293.54 274.14 294.20 274.80 C 295.99 276.59 300.12 276.24 303.50 274.00ZM 128.39 221.54 C 129.84 219.64 143.25 215.83 161.70 212.09 C 191.90 205.95 215.14 204.11 258.00 204.45 C 296.29 204.75 322.24 207.58 350.59 214.55 C 367.93 218.80 370.98 219.88 370.35 221.53 C 369.35 224.15 373.05 223.16 375.98 220.02 C 378.73 217.07 380.02 213.57 379.23 211.19 C 377.58 206.25 339.88 196.34 308.50 192.60 C 248.32 185.42 177.87 190.27 134.12 204.60 C 120.30 209.13 118.61 210.25 119.39 214.34 C 119.72 216.08 121.35 218.74 123.01 220.25 C 126.49 223.42 126.89 223.52 128.39 221.54ZM 139.08 198.48 C 142.60 197.57 145.79 196.63 146.18 196.39 C 146.56 196.15 145.75 194.84 144.37 193.46 C 142.74 191.83 142.08 190.32 142.47 189.10 C 142.79 188.07 142.53 186.07 141.89 184.65 C 140.83 182.33 140.30 182.13 136.61 182.64 C 132.88 183.14 132.29 182.91 130.22 180.10 C 125.86 174.18 117.00 177.43 117.00 184.96 C 117.00 187.92 116.44 189.13 114.50 190.41 C 113.12 191.31 112.00 192.96 112.00 194.07 C 112.00 197.29 114.79 201.83 117.71 203.36 C 120.12 204.62 121.03 204.52 126.54 202.45 C 129.92 201.18 135.56 199.39 139.08 198.48ZM 377.92 199.41 C 380.26 197.44 381.00 196.00 381.00 193.38 C 381.00 191.19 380.45 189.77 379.50 189.47 C 378.68 189.21 377.30 188.78 376.44 188.51 C 375.18 188.11 375.41 187.55 377.59 185.68 C 381.43 182.37 380.39 179.02 374.57 175.93 L 370.09 173.55 L 367.09 175.78 C 365.43 177.00 363.88 178.00 363.64 178.00 C 363.40 178.00 361.62 176.43 359.70 174.50 C 354.01 168.81 352.04 169.64 346.11 180.21 C 343.01 185.71 342.96 186.01 344.57 188.46 C 345.88 190.47 345.98 191.32 345.04 192.45 C 344.05 193.64 344.58 194.08 348.18 195.02 C 350.55 195.64 356.77 197.43 362.00 198.98 C 373.94 202.53 374.21 202.54 377.92 199.41ZM 166.16 192.40 L 175.83 190.68 L 176.29 186.09 C 176.54 183.57 177.07 180.53 177.46 179.34 C 178.45 176.39 174.96 173.00 170.94 173.00 C 169.16 173.00 168.14 172.58 168.50 172.00 C 169.29 170.72 174.58 170.71 176.96 171.98 C 179.14 173.14 181.05 178.10 180.35 180.76 C 179.73 183.15 186.38 189.31 188.83 188.61 C 189.75 188.35 196.22 187.60 203.22 186.94 C 215.82 185.75 215.92 185.72 214.47 183.65 C 212.81 181.28 212.54 175.25 214.00 173.00 C 214.70 171.91 214.97 172.78 214.98 176.16 C 215.00 180.12 215.46 181.21 218.05 183.39 C 220.69 185.61 221.72 185.87 225.80 185.35 C 232.12 184.54 233.29 183.18 233.81 175.99 C 234.23 170.09 234.36 169.86 238.16 167.92 C 242.84 165.53 244.31 162.27 243.41 156.26 C 242.22 148.30 236.04 145.79 230.48 151.02 C 229.32 152.11 228.00 153.00 227.55 153.00 C 227.09 153.00 224.79 151.22 222.42 149.03 C 220.05 146.85 216.93 144.77 215.47 144.40 C 211.98 143.53 207.87 146.58 206.76 150.86 C 205.86 154.31 203.00 156.00 198.09 156.00 C 196.56 156.00 194.52 156.87 193.56 157.94 C 192.17 159.47 191.29 159.68 189.33 158.94 C 187.17 158.11 186.41 158.49 183.34 161.91 C 181.41 164.06 178.70 166.11 177.31 166.46 C 173.62 167.38 168.33 165.28 165.95 161.93 C 162.85 157.58 158.03 157.89 150.22 162.94 C 145.27 166.13 143.93 167.59 143.07 170.69 C 141.75 175.44 141.72 179.46 142.97 183.43 C 143.50 185.12 144.19 187.77 144.50 189.31 C 145.16 192.57 150.02 195.25 154.00 194.56 C 155.38 194.32 160.85 193.35 166.16 192.40ZM 340.00 189.53 C 340.00 187.62 340.87 184.36 341.94 182.28 C 343.18 179.86 343.67 177.47 343.30 175.65 C 342.48 171.56 336.77 166.23 332.31 165.40 C 328.85 164.75 328.34 164.99 324.94 168.82 C 321.03 173.23 320.00 173.26 320.00 168.97 C 320.00 165.82 316.83 161.40 313.91 160.47 C 312.53 160.03 310.55 160.73 307.81 162.63 L 303.76 165.44 L 304.29 171.22 C 304.75 176.36 304.61 177.00 302.96 177.00 C 300.35 177.00 298.26 180.43 298.77 183.89 C 299.25 187.15 298.77 187.00 314.84 189.09 L 324.18 190.31 L 326.44 187.47 L 328.71 184.63 L 328.25 187.74 C 327.82 190.69 328.00 190.89 332.15 191.81 C 339.64 193.49 340.00 193.38 340.00 189.53ZM 297.00 184.90 C 297.00 183.75 295.43 181.23 293.52 179.32 C 290.15 175.95 290.08 175.74 291.52 172.97 C 294.82 166.58 291.97 157.96 286.58 158.02 C 283.27 158.06 276.42 161.56 274.39 164.26 L 272.52 166.74 L 269.19 164.20 C 266.45 162.11 265.39 161.83 263.19 162.60 C 259.74 163.81 257.63 168.19 258.42 172.45 C 259.14 176.25 261.60 178.80 265.64 179.89 C 267.78 180.47 268.43 181.19 268.20 182.75 C 267.93 184.62 268.54 184.89 274.20 185.43 C 277.67 185.76 282.98 186.16 286.00 186.33 C 289.02 186.49 292.74 186.71 294.25 186.82 C 296.44 186.96 297.00 186.57 297.00 184.90ZM 264.62 183.81 C 265.03 183.15 264.77 182.42 264.04 182.18 C 263.31 181.94 261.04 180.22 258.99 178.37 C 256.94 176.52 254.41 175.00 253.38 175.00 C 252.35 175.01 249.43 174.27 246.90 173.36 C 240.78 171.17 237.34 172.05 236.58 176.00 C 236.26 177.65 235.74 180.35 235.42 182.00 L 234.84 185.00 L 249.36 185.00 C 259.52 185.00 264.10 184.64 264.62 183.81ZM 140.00 175.85 C 140.00 167.90 144.33 162.26 154.03 157.58 C 158.05 155.64 158.98 155.51 160.55 156.66 C 161.56 157.40 162.72 158.00 163.12 158.00 C 164.74 158.00 164.95 154.13 163.52 150.69 C 161.19 145.12 161.57 138.92 164.50 134.60 C 167.20 130.62 167.60 127.98 165.96 124.93 C 164.85 122.84 162.02 122.38 160.38 124.02 C 159.70 124.70 158.37 124.53 156.28 123.49 C 153.47 122.09 152.80 122.10 149.08 123.58 C 143.66 125.75 142.70 129.04 146.38 132.87 C 147.82 134.38 149.00 135.89 149.00 136.23 C 149.00 136.57 147.65 138.20 146.00 139.85 C 144.35 141.50 143.00 143.53 143.00 144.36 C 143.00 146.65 145.14 147.51 146.18 145.64 C 147.33 143.60 152.88 143.46 155.56 145.42 C 158.33 147.44 156.66 148.48 153.73 146.56 C 150.75 144.61 148.65 145.27 147.11 148.65 C 146.00 151.09 145.85 151.13 143.51 149.60 C 140.09 147.36 135.41 147.59 132.89 150.11 C 131.10 151.90 130.87 152.96 131.41 157.04 C 131.98 161.29 131.81 161.92 130.02 162.49 C 125.25 164.01 125.70 169.23 130.92 172.94 C 134.10 175.21 135.15 177.65 132.50 176.64 C 130.58 175.90 130.58 176.88 132.50 179.00 C 133.48 180.09 135.03 180.50 137.00 180.21 C 139.75 179.81 140.00 179.44 140.00 175.85ZM 299.62 176.16 C 301.42 174.66 301.67 173.61 301.25 169.28 C 300.85 165.13 300.36 164.06 298.63 163.60 C 294.69 162.54 293.93 162.87 294.56 165.38 C 294.89 166.69 294.69 169.48 294.11 171.57 C 292.48 177.46 295.28 179.79 299.62 176.16ZM 372.13 171.81 C 374.65 172.01 375.00 171.70 374.98 169.27 C 374.98 167.74 374.35 164.70 373.59 162.50 C 372.55 159.47 371.46 158.24 369.09 157.44 C 367.38 156.86 364.74 154.92 363.24 153.12 C 360.77 150.18 360.23 149.96 357.75 150.90 C 354.52 152.13 354.58 151.86 356.55 155.81 C 358.31 159.32 357.75 161.03 353.59 164.92 C 350.80 167.54 350.25 169.19 352.25 168.93 C 355.82 168.46 358.28 169.28 361.20 171.88 C 364.27 174.63 364.54 174.69 366.85 173.18 C 368.18 172.31 370.56 171.69 372.13 171.81ZM 256.00 169.93 C 256.00 162.06 262.31 157.90 269.37 161.12 C 271.43 162.06 272.34 161.89 274.88 160.09 C 276.55 158.90 279.17 157.49 280.72 156.95 C 282.76 156.24 283.86 154.90 284.76 152.00 C 286.49 146.47 286.43 146.30 282.50 145.00 C 279.08 143.87 279.00 143.72 279.00 138.48 C 279.00 131.53 277.06 130.00 268.28 130.00 C 261.38 130.00 258.00 132.03 258.00 136.17 C 258.00 137.37 257.26 139.16 256.37 140.15 C 254.83 141.84 254.56 141.85 251.95 140.31 C 249.38 138.79 248.97 138.79 246.70 140.27 C 243.42 142.43 242.62 146.15 244.48 150.61 C 246.76 156.07 246.49 164.25 243.95 166.55 C 241.90 168.40 241.91 168.41 246.20 170.66 C 248.56 171.90 251.74 172.93 253.25 172.95 C 255.66 172.99 256.00 172.62 256.00 169.93ZM 179.75 162.15 C 180.71 161.13 182.28 159.33 183.24 158.15 C 184.28 156.87 186.12 156.00 187.80 156.00 C 189.35 156.00 191.49 155.34 192.56 154.53 C 193.63 153.72 195.24 153.05 196.14 153.03 C 199.37 152.97 199.45 144.95 196.28 138.65 C 195.06 136.23 194.37 135.87 191.74 136.25 C 189.33 136.60 187.65 135.95 184.24 133.35 C 181.82 131.51 178.74 130.00 177.39 130.00 C 173.95 130.00 168.86 132.32 166.52 134.95 C 163.90 137.89 163.75 147.44 166.27 151.28 C 167.22 152.74 168.00 155.68 168.00 157.81 C 168.00 160.85 168.49 161.93 170.25 162.78 C 173.73 164.46 177.82 164.19 179.75 162.15ZM 307.69 159.83 C 308.96 158.63 310.00 157.14 310.00 156.52 C 310.00 155.89 310.58 154.59 311.28 153.63 C 312.35 152.17 313.03 152.06 315.44 152.98 C 317.99 153.95 318.64 153.76 321.16 151.35 C 324.51 148.14 324.71 146.17 322.04 142.78 L 320.08 140.28 L 322.54 136.95 C 325.62 132.77 325.61 132.24 322.31 128.80 C 318.83 125.17 315.27 125.21 310.60 128.92 L 306.92 131.84 L 302.71 129.43 C 296.80 126.05 290.83 126.13 288.07 129.63 C 285.07 133.45 285.26 140.45 288.50 145.21 C 289.97 147.38 291.00 150.31 291.00 152.34 C 291.00 155.04 291.77 156.47 294.53 158.90 C 298.91 162.74 304.19 163.11 307.69 159.83ZM 205.25 148.70 C 209.02 140.82 216.30 139.96 223.10 146.60 L 226.85 150.26 L 229.56 148.13 C 231.36 146.71 233.70 146.00 236.53 146.00 C 240.30 146.00 240.86 145.70 241.45 143.35 C 241.99 141.20 241.53 140.16 239.06 137.90 C 237.38 136.37 236.00 134.45 236.00 133.63 C 236.00 131.23 231.03 128.00 227.33 128.00 C 218.98 128.00 214.21 132.93 219.19 136.42 C 220.39 137.26 221.09 138.24 220.73 138.60 C 219.66 139.67 217.22 138.26 215.44 135.55 C 213.90 133.20 213.89 132.81 215.38 130.54 C 217.77 126.90 220.57 125.78 227.91 125.54 C 231.53 125.42 235.29 125.02 236.25 124.66 C 237.21 124.30 238.68 123.79 239.50 123.53 C 241.84 122.80 241.56 112.56 239.13 110.13 C 238.09 109.09 236.81 108.08 236.27 107.88 C 235.74 107.67 234.10 105.59 232.64 103.25 C 229.80 98.72 227.27 97.88 224.57 100.57 C 223.71 101.44 223.00 103.01 223.00 104.07 C 223.00 105.13 222.32 106.00 221.50 106.00 C 220.56 106.00 220.00 105.05 220.00 103.47 C 220.00 102.08 219.35 99.39 218.57 97.50 C 216.03 91.45 208.70 91.46 205.11 97.53 C 203.33 100.56 202.73 100.93 201.08 100.04 C 195.22 96.90 189.00 101.41 189.00 108.80 C 189.00 111.50 188.65 111.78 184.75 112.31 C 181.57 112.73 179.68 113.77 177.25 116.42 C 172.17 121.97 173.26 127.16 179.76 128.35 C 181.55 128.68 184.40 129.97 186.09 131.22 C 187.78 132.47 190.16 133.36 191.38 133.20 C 196.58 132.52 201.00 139.76 201.00 148.95 C 201.00 154.10 202.72 154.00 205.25 148.70ZM 284.00 136.63 C 284.00 130.87 286.26 126.69 290.03 125.49 C 292.81 124.61 292.48 123.18 289.05 121.21 C 287.43 120.28 285.64 118.51 285.07 117.26 C 284.26 115.48 283.22 115.00 280.14 115.00 C 277.79 115.00 275.72 114.37 274.91 113.40 C 272.83 110.89 269.16 109.84 266.82 111.10 C 265.09 112.02 264.84 112.89 265.26 116.60 C 265.53 119.02 265.38 121.00 264.92 121.00 C 264.46 121.00 262.53 119.94 260.63 118.65 C 258.37 117.12 254.98 116.07 250.89 115.65 C 244.01 114.93 243.04 115.49 243.02 120.25 C 243.00 122.94 240.53 126.32 237.97 127.18 C 235.90 127.87 237.73 132.94 241.21 136.20 C 243.37 138.21 244.63 138.77 245.35 138.05 C 246.69 136.71 251.69 136.68 252.50 138.00 C 253.63 139.83 255.00 139.03 255.00 136.56 C 255.00 132.08 258.98 128.80 265.50 127.92 C 268.73 127.48 272.64 127.38 274.20 127.69 C 278.40 128.53 282.00 133.33 282.00 138.08 C 282.00 140.23 282.45 142.00 283.00 142.00 C 283.55 142.00 284.00 139.59 284.00 136.63ZM 263.00 113.44 C 263.00 112.65 263.94 111.06 265.09 109.91 C 266.72 108.28 267.93 107.95 270.51 108.44 C 273.62 109.02 273.90 108.84 275.01 105.48 C 275.66 103.51 275.93 100.85 275.61 99.57 C 274.85 96.54 270.04 94.60 264.98 95.28 L 261.00 95.81 L 261.00 90.58 C 261.00 86.28 260.55 84.93 258.47 82.97 C 253.47 78.28 244.27 81.09 245.66 86.89 L 246.28 89.50 L 243.73 87.16 C 240.47 84.17 238.15 84.65 235.29 88.90 C 231.14 95.06 233.01 102.68 239.94 107.79 C 241.62 109.04 243.00 110.72 243.00 111.53 C 243.00 112.67 244.49 113.01 249.75 113.04 C 253.54 113.06 257.59 113.67 258.99 114.45 C 261.73 115.96 263.00 115.64 263.00 113.44Z"/></g>
<g fill="#FBF6F3FF">
<path d="M 122.59 218.92 C 119.76 215.56 119.24 211.88 121.34 210.13 C 122.08 209.52 127.36 207.49 133.09 205.61 C 183.52 189.11 264.86 185.15 328.00 196.12 C 351.40 200.18 376.10 207.55 378.33 211.13 C 379.69 213.32 377.45 218.66 374.31 220.72 C 372.13 222.15 371.82 222.13 370.66 220.56 C 369.97 219.61 366.95 218.21 363.95 217.45 C 360.95 216.69 354.00 214.93 348.50 213.54 C 308.74 203.46 241.60 200.41 192.95 206.46 C 164.16 210.04 128.00 218.15 128.00 221.03 C 128.00 223.03 125.09 221.89 122.59 218.92ZM 138.87 214.12 C 169.92 205.00 205.60 200.69 250.50 200.61 C 294.03 200.54 328.35 204.74 361.24 214.16 C 369.04 216.39 372.73 217.03 373.83 216.34 C 377.11 214.27 375.93 213.07 368.22 210.63 C 338.15 201.13 263.12 195.47 214.50 199.03 C 179.88 201.57 138.46 208.07 125.49 213.00 C 123.25 213.85 123.07 214.26 124.05 216.08 C 124.74 217.38 125.81 217.99 126.84 217.67 C 127.75 217.39 133.17 215.79 138.87 214.12Z"/></g>
<g fill="#FBF6F3FF">
<path d="M 293.42 433.87 C 293.85 431.87 295.06 421.21 297.47 398.00 C 298.99 383.40 302.71 353.97 303.07 353.72 C 303.31 353.55 305.45 352.17 307.84 350.64 C 311.03 348.59 312.85 346.40 314.71 342.33 C 316.93 337.47 317.19 335.80 316.80 328.65 C 316.33 320.07 314.68 315.54 310.34 310.90 C 308.09 308.49 307.96 307.80 308.60 301.58 C 309.16 296.15 309.87 294.16 312.35 291.17 L 315.41 287.47 L 318.45 290.78 C 320.13 292.60 323.30 294.71 325.50 295.47 C 329.03 296.69 329.46 297.18 329.20 299.68 C 328.78 303.51 309.23 421.14 307.90 427.81 C 306.72 433.67 305.89 434.29 297.61 435.54 C 293.03 436.22 292.92 436.17 293.42 433.87Z"/></g>
<g fill="#EE2F3CFF">
<path d="M 176.64 389.75 L 169.27 382.50 L 166.66 368.50 C 165.22 360.80 163.82 352.93 163.54 351.00 C 163.26 349.07 161.04 337.60 158.61 325.50 C 156.18 313.40 153.96 302.15 153.67 300.50 C 152.88 295.90 146.19 261.96 143.45 248.63 C 142.10 242.10 141.00 236.12 141.00 235.34 C 141.00 233.31 155.23 226.62 156.05 228.25 C 156.40 228.94 157.72 235.80 158.98 243.50 C 160.25 251.20 161.64 258.20 162.07 259.06 C 162.70 260.29 161.97 260.86 158.65 261.75 C 152.88 263.29 149.00 266.51 149.00 269.75 C 149.00 274.03 162.77 315.48 164.81 317.32 C 165.82 318.25 167.85 319.00 169.31 319.00 C 172.20 319.00 172.11 318.79 173.97 330.00 C 184.64 394.37 185.05 397.00 184.44 397.00 C 184.20 397.00 180.69 393.74 176.64 389.75Z"/></g>
<g fill="#F3CEA0FE">
<path d="M 237.50 455.35 C 235.85 455.16 225.72 454.53 215.00 453.93 C 180.06 451.99 163.97 450.16 153.56 446.95 C 142.95 443.67 143.50 440.57 155.25 437.23 C 167.28 433.81 168.56 433.76 171.82 436.50 C 174.43 438.70 177.74 440.40 180.50 440.97 C 181.05 441.08 182.06 441.64 182.75 442.21 C 183.44 442.78 184.00 442.91 184.00 442.50 C 184.00 442.09 184.66 442.30 185.46 442.96 C 186.26 443.63 187.35 443.90 187.89 443.57 C 188.42 443.24 189.16 443.46 189.53 444.05 C 189.90 444.65 190.79 444.91 191.50 444.64 C 192.22 444.36 193.11 444.44 193.49 444.82 C 193.86 445.19 195.14 445.58 196.33 445.67 C 197.52 445.77 200.30 446.11 202.50 446.44 C 210.80 447.68 212.76 447.90 222.50 448.69 C 234.47 449.66 273.06 449.56 281.50 448.55 C 292.63 447.21 297.14 446.55 302.25 445.51 C 303.76 445.20 306.01 444.75 307.25 444.51 C 310.84 443.80 313.48 443.17 313.75 442.95 C 313.89 442.84 314.34 442.65 314.75 442.54 C 315.16 442.42 316.25 441.99 317.17 441.59 C 318.66 440.93 321.18 440.30 323.20 440.08 C 323.59 440.03 325.09 438.82 326.54 437.37 C 328.95 434.96 329.66 434.78 334.85 435.33 C 341.26 436.00 349.57 438.47 352.40 440.54 C 355.16 442.57 353.16 444.47 345.67 446.88 C 332.66 451.08 319.85 452.56 279.50 454.50 C 250.34 455.91 243.74 456.04 237.50 455.35Z"/></g>
<g fill="#FBF6F3FF">
<path d="M 197.31 434.81 L 192.11 433.87 L 191.08 428.68 C 189.09 418.78 172.81 318.85 173.16 318.68 C 173.35 318.58 175.75 317.38 178.50 316.00 C 184.94 312.78 185.45 309.81 181.04 301.08 C 177.64 294.34 178.36 293.41 184.02 297.25 C 188.30 300.16 190.67 305.02 191.47 312.50 L 192.11 318.50 L 187.47 320.38 C 181.21 322.92 180.25 325.27 182.37 332.83 C 187.30 350.40 195.19 372.60 197.33 374.93 C 199.45 377.24 199.96 379.78 202.38 400.00 C 203.85 412.38 205.34 425.54 205.68 429.25 C 206.37 436.89 206.87 436.56 197.31 434.81Z"/></g>
<g fill="#FBF6F3FF">
<path d="M 225.77 437.63 C 224.87 436.73 223.98 431.19 223.15 421.38 C 221.26 398.87 219.11 372.69 218.24 361.36 L 217.45 351.23 L 223.11 346.15 L 228.76 341.08 L 230.50 345.64 C 231.46 348.16 233.50 351.64 235.03 353.39 L 237.82 356.56 L 238.91 388.67 C 239.51 406.32 240.00 424.87 240.00 429.89 L 240.00 439.00 L 233.57 439.00 C 229.46 439.00 226.65 438.51 225.77 437.63Z"/></g>
<g fill="#FBF6F3FF">
<path d="M 167.34 311.84 C 164.20 304.90 153.87 269.73 154.72 268.88 C 155.25 268.35 160.82 266.14 167.09 263.96 C 183.45 258.29 190.24 258.76 193.57 265.78 C 195.75 270.39 194.36 275.29 189.53 279.97 C 187.59 281.85 186.00 283.75 186.00 284.20 C 186.00 284.64 187.86 285.00 190.13 285.00 C 195.52 285.00 200.36 288.05 203.51 293.42 C 206.73 298.93 206.65 300.61 203.05 302.47 C 198.16 305.00 195.70 304.45 193.48 300.33 C 189.79 293.47 179.81 288.43 175.01 290.99 C 172.25 292.47 172.48 295.03 176.00 302.00 C 179.70 309.33 179.74 310.77 176.25 312.10 C 170.32 314.36 168.46 314.30 167.34 311.84ZM 181.00 279.11 C 184.81 276.04 185.88 272.77 183.87 270.34 C 182.33 268.48 176.49 269.02 170.00 271.62 C 165.98 273.23 165.81 273.46 166.35 276.76 C 166.66 278.66 167.62 281.29 168.48 282.61 C 170.01 284.94 170.15 284.96 173.78 283.46 C 175.82 282.61 179.07 280.65 181.00 279.11Z"/></g>
<g fill="#FBF6F3FF">
<path d="M 277.50 364.75 C 276.67 362.41 274.97 342.53 274.33 327.75 L 273.69 313.00 L 278.84 313.00 C 283.74 313.00 284.00 313.13 284.00 315.62 L 284.00 318.23 L 288.00 314.62 C 291.57 311.39 292.60 311.00 297.47 311.00 C 302.37 311.00 303.29 311.36 306.41 314.48 C 310.48 318.55 311.99 323.18 311.98 331.50 C 311.95 345.22 300.52 353.24 290.60 346.50 C 288.57 345.12 286.49 344.00 285.97 344.00 C 285.03 344.00 285.39 348.88 287.08 358.94 C 287.78 363.03 287.69 364.58 286.75 365.17 C 284.75 366.44 277.98 366.13 277.50 364.75ZM 299.29 338.99 C 306.40 333.39 302.10 319.00 293.32 319.00 C 284.66 319.00 280.84 331.93 287.52 338.61 C 290.52 341.61 295.74 341.78 299.29 338.99Z"/></g>
<g fill="#EE2F3CFF">
<path d="M 239.66 397.75 C 239.30 384.96 239.00 370.61 239.00 365.86 L 239.00 357.22 L 242.71 359.11 C 246.67 361.13 253.55 361.56 258.60 360.11 L 261.69 359.23 L 261.27 388.86 C 261.04 405.16 260.68 419.06 260.46 419.75 C 260.18 420.64 257.21 421.00 250.19 421.00 L 240.32 421.00 L 239.66 397.75Z"/></g>
<g fill="#FBF6F3FF">
<path d="M 261.34 411.30 C 261.70 396.01 262.00 378.03 262.00 371.34 L 262.00 359.17 L 266.45 356.68 L 270.91 354.19 L 271.50 358.85 C 272.65 367.98 273.32 369.43 276.81 370.47 L 280.08 371.44 L 279.65 378.97 C 278.63 396.98 275.85 431.79 275.17 435.00 L 274.43 438.50 L 267.55 438.80 L 260.68 439.10 L 261.34 411.30Z"/></g>
<g fill="#F3CEA0FE">
<path d="M 226.83 182.69 C 229.67 179.66 229.57 178.82 226.48 179.59 C 222.42 180.61 218.00 178.25 218.00 175.07 C 218.00 173.59 217.37 171.53 216.61 170.48 C 215.42 168.85 214.85 168.75 212.61 169.77 C 209.75 171.07 209.14 173.73 211.50 174.64 C 214.14 175.65 213.14 176.80 206.75 180.07 C 198.46 184.31 190.46 184.71 186.59 181.08 C 182.87 177.59 183.09 172.34 187.23 165.41 C 191.02 159.08 193.00 158.44 193.00 163.56 C 193.00 165.68 193.40 166.87 194.00 166.50 C 194.55 166.16 195.00 164.08 195.00 161.88 C 195.00 159.11 194.64 158.10 193.85 158.60 C 193.18 159.01 192.96 158.87 193.33 158.27 C 194.01 157.17 199.92 155.96 199.82 156.93 C 199.49 160.16 200.36 163.36 202.00 165.00 C 204.88 167.88 206.05 167.49 205.33 163.88 C 204.86 161.55 205.42 159.39 207.56 155.31 C 209.13 152.31 211.18 149.44 212.13 148.93 C 213.07 148.43 214.55 147.31 215.41 146.44 C 216.84 145.02 217.50 145.36 222.59 150.17 C 227.96 155.26 228.24 155.39 229.56 153.48 C 232.28 149.56 233.13 149.00 236.42 149.00 C 239.87 149.00 243.69 151.93 241.29 152.73 C 240.53 152.99 240.29 154.20 240.65 155.98 C 241.37 159.58 238.61 164.45 234.38 167.07 C 231.62 168.78 231.18 169.70 230.58 174.98 C 230.21 178.26 229.27 181.58 228.50 182.36 C 227.73 183.13 227.37 184.04 227.71 184.38 C 228.05 184.72 227.50 185.00 226.49 185.00 C 224.80 185.00 224.83 184.81 226.83 182.69Z"/></g>
<g fill="#FBF6F3FF">
<path d="M 199.67 370.25 C 198.93 369.02 187.32 332.77 186.58 329.38 L 185.90 326.25 L 195.20 322.50 C 210.50 316.33 222.17 316.55 225.55 323.09 C 227.40 326.67 227.41 332.31 225.56 335.87 C 223.42 340.02 216.43 345.91 210.37 348.69 C 203.96 351.62 203.65 353.17 208.00 360.50 C 209.63 363.25 210.97 366.05 210.98 366.72 C 211.02 369.34 201.00 372.46 199.67 370.25ZM 208.91 342.04 C 220.30 336.23 220.92 324.94 209.77 326.23 C 207.42 326.50 203.81 327.44 201.75 328.31 C 197.31 330.19 196.88 332.94 199.97 339.75 C 202.15 344.54 203.39 344.86 208.91 342.04Z"/></g>
<g fill="#FBF6F3FF">
<path d="M 244.42 354.16 C 236.98 350.68 233.48 343.81 234.19 334.08 C 234.85 324.95 240.25 319.40 250.24 317.59 C 269.63 314.07 280.57 343.25 263.41 352.72 C 257.56 355.95 249.53 356.56 244.42 354.16ZM 259.70 344.81 C 261.53 343.10 262.00 341.58 262.00 337.46 C 262.00 328.86 256.33 323.75 249.34 326.05 C 245.85 327.20 243.00 331.20 243.00 334.93 C 243.00 338.69 246.22 345.05 248.87 346.53 C 252.16 348.37 256.68 347.65 259.70 344.81Z"/></g>
<g fill="#F3CEA0FE">
<path d="M 180.73 127.70 C 174.77 125.51 173.41 121.01 177.41 116.69 C 179.83 114.09 184.54 112.21 185.71 113.38 C 186.05 113.72 185.39 114.00 184.24 114.00 C 181.29 114.00 176.00 118.74 176.00 121.39 C 176.00 123.59 177.67 126.00 179.20 126.00 C 179.64 126.00 180.00 125.10 180.00 124.00 C 180.00 121.36 186.53 114.21 189.31 113.81 C 191.07 113.56 191.56 112.73 191.82 109.56 C 192.00 107.37 192.87 105.08 193.78 104.42 C 195.11 103.45 195.19 102.93 194.19 101.72 C 193.15 100.48 193.36 100.13 195.42 99.61 C 196.77 99.27 199.04 99.52 200.45 100.16 C 202.73 101.20 202.85 101.51 201.56 102.94 C 200.54 104.06 200.40 104.99 201.08 106.02 C 202.65 108.38 209.28 100.40 208.75 96.79 C 208.51 95.09 208.88 93.88 209.76 93.54 C 212.01 92.67 214.17 92.92 213.52 93.96 C 212.65 95.37 217.67 104.75 219.93 105.96 C 222.65 107.42 222.76 107.35 223.50 104.01 C 224.76 98.24 229.32 97.76 232.05 103.09 C 233.11 105.17 234.48 107.18 235.09 107.56 C 235.71 107.94 235.83 108.54 235.36 108.88 C 234.89 109.23 233.45 110.70 232.18 112.15 C 230.19 114.40 230.03 115.08 231.09 116.78 C 232.07 118.35 232.08 119.39 231.13 121.69 C 230.05 124.30 229.26 124.70 223.42 125.58 C 217.98 126.40 216.69 126.31 215.53 125.03 C 214.56 123.96 212.35 123.53 208.16 123.59 C 203.22 123.66 201.63 124.14 199.02 126.33 C 196.22 128.69 195.13 128.96 189.39 128.74 C 185.83 128.61 181.93 128.14 180.73 127.70Z"/></g>
<g fill="#FBF6F3FF">
<path d="M 231.00 256.80 C 227.02 254.76 218.93 254.43 214.10 256.12 C 212.34 256.73 210.71 257.04 210.48 256.82 C 210.17 256.51 207.01 220.14 207.02 217.00 C 207.02 216.72 213.03 216.36 220.37 216.18 L 233.73 215.86 L 234.37 222.68 C 235.09 230.36 235.50 257.90 234.89 258.32 C 234.68 258.47 232.93 257.79 231.00 256.80Z"/></g>
<g fill="#EE2F3CFF">
<path d="M 198.10 263.39 C 196.62 259.31 192.92 256.26 188.40 255.41 C 186.53 255.06 184.93 254.49 184.84 254.14 C 184.76 253.79 184.56 252.38 184.40 251.00 C 184.00 247.54 181.10 227.08 180.55 223.87 C 180.05 220.97 180.52 220.84 197.50 219.36 C 201.35 219.02 204.99 218.35 205.60 217.88 C 206.38 217.26 207.12 222.87 208.15 237.25 C 209.15 251.25 209.28 257.62 208.55 257.89 C 207.97 258.10 205.66 260.18 203.40 262.50 L 199.30 266.72 L 198.10 263.39Z"/></g>
<g fill="#FBF6F3FF">
<path d="M 245.84 291.91 C 243.03 290.84 240.00 285.69 240.00 282.00 C 240.00 276.48 245.84 271.41 255.00 269.00 C 263.70 266.71 265.36 262.00 257.46 262.00 C 252.32 262.00 248.30 263.38 245.32 266.17 C 242.37 268.94 241.00 267.75 241.00 262.39 C 241.00 258.15 241.21 257.81 244.75 256.31 C 246.81 255.43 251.65 254.52 255.50 254.29 C 268.35 253.51 271.67 257.23 274.85 276.00 C 277.13 289.44 276.85 290.24 270.09 289.80 C 265.88 289.52 265.47 289.26 264.97 286.50 L 264.44 283.50 L 262.65 286.18 C 259.11 291.49 251.51 294.08 245.84 291.91ZM 261.08 281.08 C 265.62 276.54 264.55 272.00 258.93 272.00 C 255.86 272.00 251.40 275.17 250.50 277.99 C 248.60 283.97 256.02 286.14 261.08 281.08Z"/></g>
<g fill="#EE2F3CFF">
<path d="M 235.66 244.19 C 235.30 237.21 235.01 227.98 235.00 223.68 L 235.00 215.85 L 250.14 216.11 L 265.28 216.37 L 264.64 225.93 C 264.30 231.20 264.01 238.54 264.01 242.25 L 264.00 249.00 L 257.82 249.00 C 249.73 249.00 240.43 251.64 238.11 254.59 C 236.33 256.85 236.29 256.67 235.66 244.19Z"/></g>
<g fill="#EE2F3CFF">
<path d="M 277.53 414.59 C 278.20 408.46 280.28 379.80 280.23 377.50 C 280.10 372.23 280.92 371.00 284.56 371.00 C 286.98 371.00 288.87 370.22 290.55 368.55 C 293.14 365.95 293.41 364.05 292.12 357.41 L 291.33 353.33 L 296.41 353.79 C 299.21 354.05 301.63 354.36 301.78 354.49 C 301.94 354.62 301.14 362.33 300.01 371.62 C 298.88 380.90 297.46 393.45 296.85 399.50 C 296.24 405.55 295.24 411.04 294.62 411.70 C 294.01 412.36 289.81 414.20 285.29 415.79 L 277.08 418.68 L 277.53 414.59Z"/></g>
<g fill="#FBF6F3FF">
<path d="M 213.32 296.12 C 207.26 293.28 203.69 287.42 203.18 279.51 C 202.68 271.63 204.78 266.84 210.33 263.16 C 213.78 260.88 215.42 260.50 221.76 260.50 C 228.86 260.50 229.28 260.63 232.08 263.77 C 234.34 266.29 235.00 268.00 235.00 271.29 C 235.00 279.20 229.71 283.25 219.39 283.25 C 212.51 283.25 211.69 284.76 217.07 287.54 C 222.66 290.43 228.82 289.25 234.17 284.27 C 237.35 281.30 238.70 281.87 239.57 286.55 C 240.37 290.77 239.36 292.14 233.42 294.93 C 226.77 298.06 218.49 298.55 213.32 296.12ZM 224.61 276.48 C 226.45 274.64 226.94 273.37 226.45 271.73 C 225.46 268.45 224.41 267.67 221.03 267.67 C 214.79 267.67 209.79 272.88 212.03 277.06 C 213.67 280.11 221.33 279.76 224.61 276.48Z"/></g>
<g fill="#FBF6F3FF">
<path d="M 273.66 255.56 C 273.36 254.77 271.29 253.08 269.06 251.81 L 265.02 249.50 L 265.17 229.50 C 265.25 218.50 265.50 210.91 265.71 212.64 L 266.11 215.77 L 274.80 216.42 C 279.59 216.78 285.22 217.32 287.33 217.63 L 291.16 218.20 L 290.52 230.35 C 289.66 246.55 289.40 247.68 286.38 248.44 C 285.01 248.79 281.95 250.85 279.58 253.03 C 274.78 257.46 274.44 257.60 273.66 255.56Z"/></g>
<g fill="#F3CEA0FE">
<path d="M 124.05 216.08 C 123.07 214.26 123.25 213.85 125.49 213.00 C 138.46 208.07 179.88 201.57 214.50 199.03 C 263.12 195.47 338.15 201.13 368.22 210.63 C 375.93 213.07 377.11 214.27 373.83 216.34 C 372.73 217.03 369.04 216.39 361.24 214.16 C 328.35 204.74 294.03 200.54 250.50 200.61 C 200.29 200.70 166.90 205.30 126.84 217.67 C 125.81 217.99 124.74 217.38 124.05 216.08Z"/></g>
<g fill="#EE2F3CFF">
<path d="M 216.00 415.09 C 208.21 412.53 205.20 410.97 204.49 409.11 C 204.06 407.99 200.02 379.42 200.00 377.36 C 200.00 377.28 201.24 376.92 202.75 376.56 C 209.87 374.86 214.17 372.58 215.64 369.72 C 217.10 366.90 217.03 366.47 214.04 360.76 C 212.31 357.47 211.03 354.66 211.20 354.52 C 212.37 353.55 216.25 351.91 216.58 352.25 C 217.19 352.86 222.27 417.11 221.69 416.95 C 221.59 416.92 219.03 416.08 216.00 415.09Z"/></g>
<g fill="#FBF6F3FF">
<path d="M 159.55 243.50 C 157.96 234.43 156.95 226.72 157.30 226.36 C 158.42 225.24 178.46 221.06 179.16 221.79 C 179.74 222.39 184.00 250.47 184.00 253.64 C 184.00 254.24 182.00 255.00 179.55 255.34 C 177.10 255.67 172.50 256.86 169.33 257.97 C 166.16 259.09 163.31 260.00 163.00 260.00 C 162.69 260.00 161.13 252.58 159.55 243.50Z"/></g>
<g fill="#F3CEA0FE">
<path d="M 321.67 428.26 C 321.22 427.53 321.51 424.72 322.55 419.51 C 323.42 415.16 323.85 412.62 324.44 408.29 C 324.75 405.98 325.69 401.03 326.52 397.29 C 327.36 393.56 328.28 389.15 328.57 387.50 C 329.68 381.21 330.02 379.44 330.47 377.50 C 330.73 376.40 331.20 373.93 331.53 372.00 C 332.49 366.35 333.08 363.23 334.41 356.75 C 334.67 355.51 335.12 352.93 335.42 351.00 C 335.72 349.07 336.27 346.15 336.65 344.50 C 337.39 341.27 337.56 340.37 338.41 335.00 C 338.71 333.07 339.27 330.15 339.65 328.50 C 340.03 326.85 340.46 324.82 340.61 324.00 C 341.08 321.34 342.58 313.77 343.48 309.50 C 343.76 308.12 344.26 305.76 344.57 304.25 C 344.89 302.74 345.23 300.60 345.33 299.50 C 345.43 298.40 345.89 296.91 346.36 296.18 C 346.82 295.46 347.00 294.67 346.76 294.43 C 346.38 294.05 347.24 289.06 349.57 278.00 C 349.86 276.62 350.24 274.38 350.42 273.00 C 350.60 271.62 350.86 270.50 351.00 270.50 C 351.14 270.50 351.40 269.38 351.58 268.00 C 351.76 266.62 352.16 264.26 352.48 262.75 C 352.79 261.24 353.26 258.88 353.52 257.50 C 354.76 250.98 355.09 249.36 355.52 247.50 C 356.10 245.04 356.99 240.34 357.50 237.00 C 357.71 235.62 358.14 233.15 358.44 231.50 C 358.75 229.85 359.17 227.44 359.38 226.14 C 359.92 222.70 362.35 221.49 363.09 224.28 C 363.42 225.50 363.32 226.97 362.89 227.55 C 362.45 228.12 362.09 229.47 362.09 230.55 C 362.09 231.62 361.84 233.62 361.55 235.00 C 361.25 236.38 360.79 239.07 360.52 241.00 C 360.26 242.93 359.72 245.62 359.34 247.00 C 358.96 248.38 358.54 250.40 358.40 251.50 C 358.16 253.40 357.60 256.29 356.50 261.25 C 355.60 265.35 354.83 269.47 354.60 271.55 C 354.47 272.68 354.03 274.14 353.62 274.80 C 353.22 275.46 353.17 276.47 353.53 277.04 C 353.88 277.62 353.64 278.72 353.00 279.50 C 352.36 280.28 352.13 281.40 352.50 282.00 C 352.87 282.60 352.64 283.72 352.00 284.50 C 351.36 285.28 351.13 286.40 351.50 287.00 C 351.87 287.60 351.70 288.65 351.13 289.34 C 350.56 290.03 350.08 291.47 350.07 292.55 C 350.05 294.51 349.53 298.12 348.53 303.25 C 348.24 304.76 347.79 307.13 347.52 308.50 C 347.26 309.88 346.82 312.13 346.55 313.51 C 345.29 319.82 344.95 321.80 344.40 326.00 C 344.08 328.48 343.37 331.04 342.82 331.71 C 342.28 332.37 342.13 333.40 342.50 334.00 C 342.87 334.60 342.64 335.72 342.00 336.50 C 341.36 337.28 341.13 338.40 341.50 339.00 C 341.87 339.60 341.45 341.19 340.56 342.54 C 339.62 343.98 339.40 345.00 340.04 345.00 C 340.63 345.00 340.82 345.48 340.46 346.06 C 340.11 346.64 339.63 348.21 339.41 349.56 C 339.18 350.90 338.74 353.24 338.43 354.75 C 338.11 356.26 337.72 358.62 337.55 360.00 C 337.39 361.38 337.14 362.50 337.00 362.50 C 336.86 362.50 336.60 363.62 336.42 365.00 C 336.24 366.38 335.87 368.62 335.59 370.00 C 335.31 371.38 334.84 374.07 334.56 376.00 C 334.27 377.93 333.73 380.85 333.35 382.50 C 332.97 384.15 332.54 386.18 332.39 387.00 C 332.25 387.82 331.88 389.62 331.59 391.00 C 330.43 396.43 329.84 399.61 329.55 402.00 C 329.39 403.38 329.14 404.50 329.00 404.50 C 328.86 404.50 328.61 405.62 328.45 407.00 C 328.28 408.38 327.90 410.62 327.60 412.00 C 326.44 417.31 326.00 419.62 325.52 422.81 C 325.02 426.14 322.52 429.67 321.67 428.26Z"/></g>
<g fill="#EE2F3CFF">
<path d="M 307.50 247.79 C 305.85 247.30 301.19 246.82 297.16 246.73 L 289.81 246.55 L 290.46 235.53 C 290.81 229.46 291.35 223.21 291.66 221.62 L 292.21 218.75 L 298.86 219.42 C 302.51 219.78 308.45 220.57 312.05 221.16 L 318.61 222.23 L 316.85 233.86 C 315.89 240.26 315.08 245.77 315.05 246.09 C 314.92 247.58 310.30 248.63 307.50 247.79Z"/></g>
<g fill="#FBF6F3FF">
<path d="M 328.01 291.03 C 326.10 290.55 323.22 288.69 321.63 286.91 C 318.73 283.66 318.73 283.65 319.49 274.58 C 320.83 258.74 320.95 259.54 317.19 259.18 C 313.43 258.82 312.34 257.10 313.96 254.08 C 314.78 252.55 315.89 252.07 318.22 252.25 C 321.10 252.48 321.45 252.18 322.28 248.79 C 323.29 244.63 325.09 243.65 329.50 244.85 C 332.18 245.57 332.50 246.07 332.50 249.57 L 332.50 253.48 L 337.85 254.14 C 344.16 254.93 345.02 255.60 344.32 259.20 C 343.79 261.87 343.71 261.90 337.55 261.32 C 330.16 260.63 330.20 260.57 329.31 272.18 C 328.52 282.40 329.32 283.46 337.22 282.63 L 343.00 282.03 L 343.00 284.82 C 343.00 286.36 342.44 288.38 341.75 289.30 C 340.24 291.33 332.92 292.25 328.01 291.03Z"/></g>
<g fill="#FBF6F3FF">
<path d="M 289.66 288.80 C 278.64 285.81 273.51 269.89 280.33 259.87 C 284.28 254.07 287.36 252.54 295.82 252.17 C 300.04 251.99 304.74 252.31 306.25 252.89 C 308.61 253.80 309.00 254.51 309.00 257.92 C 309.00 262.83 308.16 263.38 303.64 261.49 C 296.22 258.39 289.72 260.60 288.06 266.79 C 286.77 271.55 288.24 277.35 291.26 279.47 C 294.33 281.62 300.87 281.38 304.81 278.97 C 306.63 277.86 308.54 277.22 309.06 277.54 C 309.58 277.86 310.00 280.10 310.00 282.52 C 310.00 285.71 309.51 287.18 308.25 287.84 C 305.40 289.33 293.80 289.93 289.66 288.80Z"/></g>
<g fill="#F3CEA0FE">
<path d="M 250.17 156.54 C 248.50 154.64 246.96 153.41 246.73 153.79 C 246.51 154.18 246.46 153.95 246.63 153.27 C 246.79 152.59 246.28 150.22 245.50 148.00 C 243.86 143.34 244.25 141.65 247.31 140.25 C 248.94 139.50 250.22 139.66 252.33 140.87 C 255.05 142.44 255.23 142.41 257.07 140.15 C 258.13 138.85 258.73 137.37 258.41 136.85 C 258.09 136.33 258.55 134.81 259.44 133.46 C 260.91 131.21 261.69 131.00 268.46 131.00 C 272.54 131.00 276.16 131.45 276.50 132.00 C 276.84 132.55 276.23 133.00 275.14 133.00 C 271.84 133.00 270.00 134.11 270.00 136.12 C 270.00 138.26 275.78 149.00 276.93 149.00 C 278.47 149.00 278.83 147.72 277.88 145.63 C 277.23 144.21 277.23 142.62 277.88 140.98 L 278.87 138.50 L 278.94 141.24 C 278.99 143.39 279.74 144.28 282.50 145.44 C 284.43 146.24 286.00 147.45 286.00 148.12 C 286.00 148.79 285.75 149.09 285.46 148.79 C 285.16 148.49 283.57 149.59 281.93 151.23 C 279.41 153.74 278.42 154.11 275.62 153.59 C 273.49 153.19 271.25 153.51 269.40 154.48 C 267.80 155.31 265.69 155.99 264.71 155.99 C 263.72 156.00 261.95 156.90 260.77 158.00 C 257.47 161.08 253.70 160.56 250.17 156.54Z"/></g>
<g fill="#F3CEA0FE">
<path d="M 245.14 105.91 C 240.95 102.79 240.80 102.49 241.27 98.33 C 241.74 94.13 241.67 94.00 238.94 94.00 C 235.58 94.00 234.60 92.74 235.42 89.47 C 236.36 85.71 239.51 84.51 241.98 86.98 C 244.79 89.79 246.00 89.51 246.00 86.04 C 246.00 84.13 246.69 82.70 247.93 82.04 C 250.46 80.68 256.00 80.70 256.00 82.06 C 256.00 82.64 256.56 82.79 257.25 82.40 C 257.94 82.00 258.18 82.04 257.79 82.47 C 256.81 83.56 258.87 87.20 260.05 86.47 C 260.58 86.14 261.00 87.45 261.00 89.44 C 261.00 91.47 260.50 93.00 259.85 93.00 C 259.16 93.00 259.39 93.77 260.38 94.87 C 261.71 96.33 263.03 96.64 266.39 96.26 C 270.89 95.75 275.01 97.20 274.98 99.29 C 274.98 100.05 274.61 99.94 274.00 99.00 C 273.21 97.78 273.03 97.91 273.02 99.69 C 273.00 102.28 269.52 105.00 266.23 105.00 C 264.95 105.00 262.58 105.68 260.97 106.52 C 259.35 107.35 256.11 108.29 253.77 108.59 C 250.05 109.08 248.93 108.73 245.14 105.91Z"/></g>
<g fill="#F3CEA0FE">
<path d="M 294.50 154.01 C 294.16 152.91 294.16 151.55 294.52 150.97 C 294.87 150.40 293.78 147.77 292.08 145.13 C 290.39 142.49 289.00 139.33 289.00 138.12 C 289.00 136.14 289.36 135.98 292.46 136.56 C 295.58 137.14 295.97 136.96 296.56 134.60 C 297.30 131.67 298.40 131.44 302.00 133.50 C 305.67 135.60 307.13 135.34 311.35 131.86 C 313.96 129.71 314.78 128.48 313.95 127.97 C 313.12 127.46 313.45 126.99 314.99 126.50 C 319.22 125.16 325.40 130.60 322.97 133.53 C 322.34 134.29 322.12 135.39 322.48 135.96 C 322.83 136.54 322.42 137.28 321.56 137.61 C 319.60 138.37 319.53 141.37 321.44 142.95 C 323.70 144.83 318.70 149.86 313.80 150.65 C 311.68 150.99 309.71 151.65 309.42 152.13 C 308.71 153.28 304.27 153.25 303.56 152.09 C 303.25 151.60 302.05 151.44 300.90 151.74 C 299.72 152.04 298.45 151.72 298.01 151.02 C 296.74 148.97 294.77 150.96 295.44 153.61 C 296.16 156.49 295.40 156.82 294.50 154.01Z"/></g>
<g fill="#FBF6F3FF">
<path d="M 165.65 377.17 C 164.56 375.96 162.43 367.27 159.53 352.17 C 157.09 339.43 154.64 327.32 154.10 325.26 C 153.55 323.19 152.57 318.01 151.91 313.75 C 151.26 309.49 150.33 306.00 149.86 306.00 C 149.39 306.00 149.00 304.31 148.99 302.25 C 148.98 298.51 142.79 265.23 141.03 259.51 C 140.53 257.85 139.57 253.12 138.91 249.00 C 138.25 244.88 136.93 237.53 135.97 232.67 C 134.48 225.11 134.43 223.77 135.66 223.30 C 136.44 223.00 137.24 222.92 137.43 223.13 C 137.80 223.52 142.85 246.77 143.49 251.00 C 143.70 252.38 145.68 262.73 147.89 274.00 C 162.11 346.40 168.11 378.22 167.64 378.69 C 167.46 378.87 166.57 378.18 165.65 377.17Z"/></g>
<g fill="#F3CEA0FE">
<path d="M 367.15 197.93 C 365.85 197.41 363.38 195.98 361.66 194.76 C 359.94 193.53 357.69 192.67 356.66 192.85 C 351.43 193.73 348.13 190.64 346.57 183.38 C 346.00 180.72 346.22 180.17 348.08 179.69 C 349.70 179.27 350.12 178.58 349.73 177.06 C 349.43 175.92 349.56 175.23 350.02 175.51 C 350.48 175.80 351.14 175.12 351.50 174.01 C 352.58 170.61 357.29 171.38 360.40 175.46 L 363.04 178.91 L 366.58 176.51 C 371.76 172.99 374.54 174.48 375.44 181.27 C 375.90 184.76 375.74 186.54 374.91 187.06 C 374.06 187.58 374.34 188.20 375.85 189.14 C 378.55 190.83 378.58 193.00 375.93 196.37 C 373.78 199.10 371.21 199.56 367.15 197.93Z"/></g>
<g fill="#F3CEA0FE">
<path d="M 315.00 120.50 C 315.00 117.34 312.48 117.20 306.88 120.06 C 304.12 121.47 301.91 121.92 299.93 121.48 C 296.69 120.77 293.00 116.72 293.00 113.87 C 293.00 112.40 292.19 111.97 289.25 111.84 C 287.19 111.75 284.71 111.75 283.75 111.83 C 282.79 111.91 282.08 111.64 282.16 111.24 C 282.25 110.83 281.95 109.66 281.51 108.63 C 281.06 107.61 281.11 105.58 281.62 104.13 C 282.31 102.16 283.32 101.42 285.67 101.19 C 288.27 100.94 289.28 101.50 291.52 104.44 C 293.02 106.40 294.55 108.00 294.93 108.00 C 295.32 108.00 296.37 106.45 297.28 104.55 C 300.37 98.05 306.00 96.56 310.75 100.98 C 312.74 102.83 313.02 106.35 311.55 110.90 C 310.82 113.15 310.96 113.26 313.84 112.68 C 316.46 112.16 317.27 112.53 319.40 115.26 C 320.78 117.01 321.55 118.68 321.13 118.97 C 320.70 119.26 320.06 120.29 319.71 121.25 C 319.35 122.21 318.15 123.00 317.03 123.00 C 315.53 123.00 315.00 122.35 315.00 120.50Z"/></g>
<g fill="#F8AB55FF">
<path d="M 320.92 163.34 C 320.14 161.87 318.15 159.85 316.50 158.84 L 313.50 157.01 L 316.63 157.00 C 319.02 157.00 320.63 156.04 323.38 153.00 C 327.42 148.53 327.69 147.23 325.46 142.92 C 324.08 140.25 324.08 139.73 325.46 137.75 C 328.22 133.81 327.43 129.59 323.25 125.91 C 319.26 122.40 319.03 120.95 322.01 117.76 C 323.76 115.89 323.85 115.88 323.43 117.63 C 322.59 121.09 324.56 122.51 329.99 122.35 C 332.78 122.26 335.61 121.74 336.28 121.19 C 336.95 120.63 338.85 120.02 340.50 119.84 C 342.67 119.59 343.58 118.91 343.81 117.35 C 343.97 116.17 345.03 114.38 346.15 113.37 C 348.05 111.64 348.26 111.63 349.43 113.23 C 350.92 115.27 350.78 117.47 348.92 121.50 C 347.15 125.35 346.02 126.14 343.26 125.49 C 340.16 124.76 334.42 127.35 332.90 130.17 C 331.69 132.39 331.54 138.56 332.61 142.20 C 332.88 143.13 334.09 144.20 335.30 144.57 C 336.51 144.94 338.30 145.94 339.27 146.79 C 340.88 148.21 341.52 148.15 346.29 146.17 C 349.18 144.98 352.51 144.00 353.70 144.00 C 354.92 144.00 356.91 142.66 358.29 140.89 L 360.72 137.78 L 361.22 140.37 C 361.49 141.80 361.09 143.86 360.32 144.95 C 358.39 147.71 352.42 150.39 350.26 149.47 C 349.29 149.06 346.70 148.75 344.51 148.78 C 342.32 148.82 339.92 148.35 339.18 147.74 C 338.18 146.91 336.99 147.09 334.42 148.47 C 332.54 149.49 331.00 150.72 331.00 151.21 C 331.00 151.70 329.43 152.76 327.52 153.56 C 323.58 155.20 322.11 158.75 323.81 162.47 C 324.81 164.67 324.50 166.00 323.00 166.00 C 322.64 166.00 321.70 164.80 320.92 163.34Z"/></g>
<g fill="#F3CEA0FE">
<path d="M 149.67 189.33 C 149.30 188.97 148.99 186.83 148.97 184.58 C 148.93 179.85 146.98 176.73 144.34 177.18 C 141.35 177.70 142.59 172.33 146.61 167.43 C 151.97 160.89 160.06 157.96 162.99 161.49 C 163.67 162.31 164.56 162.77 164.97 162.52 C 166.82 161.37 165.20 170.81 163.05 173.72 C 160.61 177.02 160.83 180.00 163.52 180.00 C 164.39 180.00 165.57 178.65 166.15 177.00 C 167.05 174.43 167.70 174.00 170.73 174.00 C 174.25 174.00 174.26 174.01 173.67 177.75 C 173.34 179.81 172.31 181.95 171.37 182.50 C 170.44 183.05 168.85 184.29 167.84 185.25 C 165.51 187.46 165.10 187.44 162.49 184.99 C 160.64 183.25 159.91 183.13 157.13 184.10 C 154.39 185.06 153.60 184.95 151.83 183.36 C 149.76 181.50 149.76 181.51 150.16 185.75 C 150.37 188.09 150.50 190.00 150.44 190.00 C 150.38 190.00 150.03 189.70 149.67 189.33Z"/></g>
<g fill="#F3CEA0FE">
<path d="M 303.00 184.73 C 300.26 183.77 299.50 182.96 299.50 181.00 C 299.50 179.04 300.21 178.29 302.77 177.54 C 305.20 176.82 305.87 176.17 305.35 175.04 C 304.09 172.27 304.14 166.33 305.42 166.33 C 307.07 166.33 313.00 161.86 313.00 160.62 C 313.00 160.08 314.36 160.93 316.02 162.52 C 317.92 164.34 319.27 166.84 319.65 169.23 C 320.47 174.35 321.33 174.60 324.11 170.54 C 326.60 166.91 329.65 165.01 331.79 165.75 C 332.73 166.07 332.79 166.55 332.00 167.50 C 331.19 168.48 331.72 169.45 334.21 171.48 C 336.36 173.23 336.69 173.76 335.17 173.00 C 332.05 171.45 329.69 172.43 330.48 174.95 C 330.97 176.49 330.30 177.32 327.30 178.85 C 325.21 179.91 321.70 181.71 319.50 182.83 C 314.30 185.49 307.40 186.28 303.00 184.73Z"/></g>
<g fill="#F3CEA0FE">
<path d="M 173.56 151.10 C 171.95 149.39 169.81 148.00 168.81 148.00 C 164.65 148.00 168.11 137.03 173.09 134.46 C 177.29 132.28 183.31 132.58 185.57 135.07 C 186.85 136.49 188.25 137.00 189.96 136.67 C 193.55 135.98 195.66 137.45 197.02 141.56 C 198.04 144.65 197.95 145.39 196.35 147.17 C 193.46 150.37 187.23 153.12 181.62 153.68 C 176.88 154.16 176.28 153.96 173.56 151.10Z"/></g>
<g fill="#EE2F3CFF">
<path d="M 237.00 308.77 C 237.00 299.80 237.14 299.14 239.40 297.66 C 241.26 296.44 242.56 296.30 245.14 297.04 C 250.11 298.46 254.01 298.18 258.70 296.05 L 262.90 294.14 L 262.83 304.00 L 262.76 313.86 L 260.31 312.93 C 254.90 310.87 242.97 312.91 238.91 316.59 C 237.04 318.27 237.00 318.09 237.00 308.77Z"/></g>
<g fill="#FBF6F3FF">
<path d="M 316.00 244.87 C 316.00 242.81 319.01 222.70 319.38 222.30 C 319.48 222.19 324.27 223.16 330.03 224.46 C 335.78 225.76 340.76 226.65 341.10 226.44 C 341.44 226.23 341.11 229.76 340.38 234.28 C 339.64 238.80 339.03 243.40 339.02 244.50 C 338.99 246.26 338.72 246.16 336.71 243.66 C 335.16 241.71 333.07 240.56 330.11 240.02 C 324.01 238.90 320.78 239.99 319.00 243.77 C 317.26 247.46 316.00 247.92 316.00 244.87Z"/></g>
<g fill="#F8AB55FF">
<path d="M 183.73 185.86 C 181.72 184.06 181.04 182.43 180.87 179.00 C 180.57 172.91 178.76 171.00 173.29 171.00 C 169.03 171.00 168.82 171.15 166.90 175.50 C 164.89 180.04 162.45 181.33 161.33 178.43 C 161.00 177.56 161.67 175.58 162.82 174.03 C 166.19 169.47 166.57 166.26 164.13 162.96 C 161.74 159.73 161.54 159.00 163.03 159.00 C 163.60 159.00 164.35 159.75 164.70 160.67 C 165.66 163.16 168.85 166.06 171.32 166.71 C 176.63 168.10 179.16 167.32 182.99 163.14 C 186.51 159.28 190.00 157.71 190.00 159.98 C 190.00 160.53 188.65 163.16 187.00 165.85 C 183.08 172.22 182.93 177.65 186.59 181.08 C 190.25 184.52 198.60 184.33 205.51 180.65 C 211.49 177.46 213.42 177.27 212.73 179.94 C 212.45 181.00 212.85 182.77 213.62 183.86 C 214.93 185.74 214.82 185.85 211.76 185.79 C 208.66 185.73 204.55 186.10 191.93 187.57 C 186.99 188.14 186.07 187.95 183.73 185.86Z"/></g>
<g fill="#F3CEA0FE">
<path d="M 292.24 184.01 C 290.97 181.98 285.31 180.01 280.70 180.01 C 279.06 180.00 276.88 178.97 275.41 177.50 C 273.44 175.53 271.89 175.00 268.14 175.00 C 262.66 175.00 259.00 172.41 259.00 168.53 C 259.00 163.19 265.43 161.18 269.70 165.19 L 272.02 167.37 L 275.26 164.31 C 279.30 160.48 282.14 159.00 285.43 159.00 C 288.54 159.00 288.87 160.73 285.85 161.18 C 282.18 161.73 281.22 164.55 283.78 167.27 C 285.17 168.75 286.00 170.89 286.00 173.03 C 286.00 175.67 286.93 177.37 290.19 180.69 C 292.49 183.04 294.16 185.17 293.90 185.43 C 293.64 185.70 292.89 185.05 292.24 184.01Z"/></g>
<g fill="#FBF6F3FF">
<path d="M 265.22 315.44 C 263.27 314.08 263.00 313.00 263.01 306.69 C 263.04 295.40 263.10 295.29 270.61 294.81 C 275.47 294.50 277.56 293.88 279.17 292.28 C 281.05 290.39 281.54 290.31 283.40 291.52 C 285.30 292.77 285.45 293.59 285.00 300.20 C 284.62 305.70 284.16 307.43 283.12 307.21 C 282.36 307.04 279.32 307.41 276.37 308.03 C 270.85 309.17 269.00 310.91 269.00 314.93 C 269.00 317.41 268.18 317.52 265.22 315.44Z"/></g>
<g fill="#F3CEA0FE">
<path d="M 222.71 145.57 C 220.62 143.72 217.92 142.00 216.71 141.74 C 215.49 141.47 213.60 140.93 212.50 140.53 C 210.90 139.95 210.80 140.03 212.00 140.89 C 213.30 141.82 213.26 141.97 211.75 141.98 C 208.94 142.01 208.54 141.63 208.85 139.25 C 209.33 135.58 208.16 136.69 207.00 141.00 C 205.61 146.16 203.00 146.45 203.00 141.45 C 203.00 137.36 206.63 133.00 210.04 133.00 C 211.22 133.00 213.37 134.35 214.81 136.00 C 216.40 137.81 218.42 139.00 219.91 139.00 L 222.37 139.00 L 219.49 135.99 C 216.91 133.30 216.76 132.81 218.11 131.47 C 219.78 129.79 223.00 128.81 227.45 128.62 C 230.02 128.52 230.48 128.93 231.08 131.82 C 231.46 133.64 232.72 136.14 233.89 137.38 C 236.76 140.44 236.54 141.94 233.10 142.63 C 230.91 143.07 230.07 143.91 229.63 146.10 C 228.89 149.82 227.39 149.71 222.71 145.57Z"/></g>
<g fill="#F3CEA0FE">
<path d="M 121.20 196.80 C 120.54 196.14 120.00 194.33 120.00 192.77 C 120.00 191.17 119.34 189.69 118.50 189.36 C 116.28 188.51 116.59 182.41 118.97 180.03 C 120.06 178.94 122.16 177.75 123.64 177.37 C 125.86 176.82 126.84 177.26 129.16 179.85 C 131.52 182.50 132.69 183.00 136.47 183.00 C 140.39 183.00 141.04 183.31 141.57 185.42 C 142.67 189.79 141.68 191.43 136.99 193.06 C 134.52 193.91 130.83 195.37 128.78 196.31 C 124.38 198.31 122.81 198.41 121.20 196.80Z"/></g>
<g fill="#FBF6F3FF">
<path d="M 229.51 320.38 C 227.46 316.57 221.69 313.00 217.60 313.00 C 214.54 313.00 214.30 312.61 213.85 307.00 L 213.50 302.50 L 218.69 302.84 C 221.59 303.02 226.39 302.45 229.55 301.53 C 232.67 300.62 235.47 300.14 235.79 300.45 C 236.10 300.77 236.52 304.73 236.71 309.26 C 237.04 317.11 236.93 317.65 234.24 320.71 L 231.42 323.93 L 229.51 320.38Z"/></g>
<g fill="#F8AB55FF">
<path d="M 201.00 147.57 C 201.00 139.30 196.12 131.75 191.34 132.61 C 188.86 133.06 183.48 129.85 184.69 128.64 C 185.03 128.30 187.62 128.29 190.45 128.62 C 195.05 129.16 195.91 128.94 198.88 126.45 C 201.64 124.13 203.15 123.66 208.16 123.59 C 216.03 123.47 217.69 125.03 215.22 130.20 C 213.74 133.30 213.13 133.74 210.82 133.29 C 206.98 132.55 203.00 136.71 203.00 141.45 C 203.00 146.45 205.61 146.16 207.00 141.00 C 208.33 136.05 208.98 135.89 208.81 140.56 C 208.72 142.73 207.97 144.61 206.88 145.37 C 205.90 146.06 204.63 147.83 204.07 149.31 C 202.52 153.39 201.00 152.53 201.00 147.57Z"/></g>
<g fill="#F3CEA0FE">
<path d="M 342.68 148.35 C 342.32 147.99 340.56 147.72 338.76 147.75 C 336.17 147.79 335.91 147.63 337.50 147.01 C 339.33 146.29 339.25 146.12 336.52 145.05 C 333.06 143.69 332.04 142.37 332.02 139.25 C 331.99 136.04 333.80 136.46 334.18 139.75 C 334.44 142.02 335.02 142.53 337.50 142.68 C 339.15 142.78 339.72 142.63 338.77 142.36 C 336.60 141.73 334.39 134.19 335.75 132.02 C 336.27 131.18 337.84 129.85 339.23 129.06 C 341.48 127.79 342.06 127.81 344.30 129.28 C 345.69 130.19 347.13 132.30 347.49 133.97 C 348.14 136.93 348.30 137.00 354.08 137.00 C 357.34 137.00 360.00 137.39 360.00 137.87 C 360.00 139.90 355.68 144.00 353.54 144.00 C 350.62 144.00 342.78 147.45 343.67 148.34 C 344.04 148.70 344.11 149.00 343.83 149.00 C 343.56 149.00 343.04 148.71 342.68 148.35Z"/></g>
<g fill="#F8AB55FF">
<path d="M 246.84 170.61 C 242.99 168.76 242.46 168.20 243.79 167.36 C 244.86 166.69 245.60 164.22 246.01 159.92 C 246.52 154.66 246.29 152.92 244.73 150.28 C 243.69 148.51 243.17 146.54 243.56 145.90 C 244.00 145.20 245.02 146.65 246.11 149.52 C 249.64 158.84 255.95 162.49 260.77 158.00 C 261.95 156.90 263.72 156.00 264.71 155.99 C 265.69 155.99 267.80 155.31 269.40 154.48 C 271.25 153.51 273.49 153.19 275.62 153.59 C 278.42 154.11 279.41 153.74 281.93 151.23 C 285.13 148.02 287.16 148.06 284.25 151.27 C 283.29 152.34 282.61 153.39 282.75 153.60 C 283.61 154.97 282.46 156.04 278.50 157.55 C 276.02 158.50 274.00 159.61 274.00 160.03 C 274.00 161.43 270.76 162.04 269.38 160.90 C 268.63 160.28 266.55 159.65 264.76 159.50 C 262.15 159.28 260.87 159.90 258.35 162.63 C 256.39 164.75 255.38 166.73 255.68 167.87 C 256.12 169.58 253.69 173.10 252.18 172.92 C 251.81 172.88 249.40 171.84 246.84 170.61Z"/></g>
<g fill="#F8AB55FF">
<path d="M 330.71 190.50 C 328.75 189.70 328.42 189.08 329.06 187.35 C 329.50 186.17 330.34 184.91 330.93 184.54 C 331.52 184.18 331.99 182.90 331.97 181.69 C 331.94 179.59 331.88 179.58 330.52 181.37 C 326.32 186.92 322.75 190.05 321.18 189.56 C 319.55 189.05 313.10 188.05 308.00 187.52 C 303.56 187.06 300.16 185.85 299.66 184.56 C 299.29 183.59 300.13 183.63 303.34 184.73 C 308.46 186.50 316.56 185.18 321.97 181.71 C 323.91 180.46 326.77 178.88 328.31 178.21 C 330.48 177.27 330.98 176.52 330.50 174.99 C 329.54 171.98 332.20 171.55 336.90 173.95 C 339.16 175.10 341.00 176.20 341.00 176.40 C 341.00 177.59 337.86 183.97 337.02 184.49 C 335.19 185.62 335.95 187.15 338.00 186.50 C 339.70 185.96 340.00 186.32 340.00 188.93 C 340.00 191.81 339.78 191.98 336.58 191.75 C 334.70 191.61 332.06 191.05 330.71 190.50Z"/></g>
<g fill="#F3CEA0FE">
<path d="M 131.00 169.00 C 128.62 166.62 128.46 164.70 130.50 163.00 C 131.49 162.18 132.00 159.94 132.00 156.43 C 132.00 152.16 132.41 150.82 134.10 149.64 C 136.63 147.87 141.60 148.33 144.07 150.56 C 145.74 152.07 145.97 151.96 147.59 148.84 L 149.32 145.50 L 150.58 149.00 C 152.10 153.21 152.29 155.09 151.16 154.75 C 150.70 154.61 149.11 155.93 147.63 157.68 C 146.16 159.42 143.61 161.15 141.97 161.51 C 139.39 162.07 139.00 162.60 139.00 165.54 C 139.00 167.87 138.39 169.25 137.07 169.96 C 134.32 171.44 133.27 171.27 131.00 169.00Z"/></g>
<g fill="#EE2F3CFF">
<path d="M 285.33 305.90 C 285.68 304.58 285.98 301.17 285.99 298.33 L 286.00 293.16 L 289.73 294.19 C 291.91 294.79 296.70 294.94 301.28 294.54 L 309.12 293.85 L 308.43 300.18 C 308.05 303.65 307.58 306.78 307.39 307.12 C 307.20 307.46 305.01 307.07 302.52 306.25 C 298.81 305.03 297.22 304.98 293.74 305.95 C 284.56 308.53 284.63 308.54 285.33 305.90Z"/></g>
<g fill="#F8AB55FF">
<path d="M 258.60 113.80 C 256.98 112.89 252.85 112.34 245.82 112.09 C 244.15 112.04 242.91 111.31 242.55 110.16 C 242.23 109.15 240.91 107.75 239.61 107.06 C 235.02 104.60 231.61 95.74 233.88 92.17 C 234.56 91.09 234.84 91.14 235.33 92.42 C 235.69 93.36 237.11 94.00 238.85 94.00 C 241.68 94.00 241.74 94.10 241.27 98.33 C 240.80 102.49 240.95 102.79 245.14 105.91 C 248.93 108.73 250.05 109.08 253.77 108.59 C 256.11 108.29 259.35 107.35 260.97 106.52 C 262.58 105.68 264.95 105.00 266.23 105.00 C 269.51 105.00 272.99 102.28 273.03 99.69 C 273.06 97.74 273.17 97.69 274.07 99.23 C 274.62 100.18 274.87 102.20 274.62 103.73 C 274.37 105.25 274.13 106.87 274.08 107.31 C 274.04 107.76 273.21 108.05 272.25 107.95 C 268.36 107.55 266.27 108.10 264.17 110.06 C 262.95 111.19 262.19 112.50 262.47 112.95 C 263.30 114.29 260.55 114.89 258.60 113.80Z"/></g>
<g fill="#F3CEA0FE">
<path d="M 265.45 120.25 C 265.50 116.54 265.89 112.94 266.33 112.25 C 267.51 110.38 271.40 110.74 274.27 113.00 C 275.67 114.10 278.20 115.00 279.88 115.00 C 283.40 115.00 286.54 118.71 285.58 121.74 C 284.85 124.06 278.60 127.00 276.81 125.86 C 274.99 124.70 270.25 124.79 269.50 126.00 C 269.16 126.55 268.09 127.00 267.12 127.00 C 265.60 127.00 265.37 126.06 265.45 120.25Z"/></g>
<g fill="#FBF6F3FF">
<path d="M 295.25 158.01 C 292.49 156.33 292.00 155.45 292.00 152.17 C 292.00 149.60 291.34 147.71 290.04 146.53 C 285.23 142.19 285.03 132.69 289.67 129.04 C 293.07 126.37 295.61 126.47 301.58 129.50 C 307.53 132.51 308.19 132.55 310.50 130.00 C 311.50 128.90 313.03 128.02 313.90 128.04 C 314.94 128.07 314.13 129.29 311.58 131.54 C 307.29 135.33 305.75 135.65 302.00 133.50 C 298.40 131.44 297.30 131.67 296.56 134.60 C 295.97 136.96 295.58 137.14 292.46 136.56 C 289.36 135.98 289.00 136.14 289.00 138.12 C 289.00 139.33 290.39 142.49 292.08 145.13 C 293.78 147.77 294.87 150.40 294.52 150.97 C 292.37 154.44 298.92 159.18 302.91 157.05 C 304.06 156.43 305.00 156.32 305.00 156.80 C 305.00 157.63 300.70 160.00 299.20 160.00 C 298.82 159.99 297.04 159.10 295.25 158.01Z"/></g>
<g fill="#F8AB55FF">
<path d="M 117.21 201.98 C 113.64 199.81 113.25 199.25 112.55 195.28 C 112.11 192.78 112.48 191.92 114.59 190.54 C 117.92 188.35 120.00 189.21 120.00 192.77 C 120.00 198.17 122.90 199.18 129.43 196.06 C 131.67 194.99 135.31 193.50 137.52 192.75 C 141.31 191.47 141.69 191.53 144.00 193.70 C 145.35 194.96 146.24 196.03 145.98 196.08 C 145.72 196.12 144.82 196.33 144.00 196.54 C 143.18 196.75 141.82 197.08 141.00 197.27 C 139.40 197.63 126.52 201.77 124.00 202.73 C 121.03 203.86 120.15 203.77 117.21 201.98Z"/></g>
<g fill="#F3CEA0FE">
<path d="M 144.00 144.97 C 144.00 141.62 145.93 138.69 147.35 139.88 C 148.70 141.00 149.64 140.52 152.29 137.38 C 154.02 135.33 154.01 135.13 152.12 131.88 C 151.04 130.02 150.01 127.39 149.83 126.03 C 149.54 123.87 149.90 123.55 152.75 123.43 C 154.53 123.35 156.51 123.91 157.14 124.67 C 158.10 125.83 158.67 125.79 160.76 124.42 C 162.83 123.07 163.44 123.02 164.53 124.15 C 165.25 124.89 165.99 126.56 166.17 127.86 C 166.45 129.85 165.80 130.48 162.00 131.88 C 157.61 133.51 157.48 133.69 156.50 139.24 C 155.68 143.94 155.24 144.77 154.00 143.98 C 151.57 142.44 148.53 142.85 146.19 145.04 L 144.00 147.08 L 144.00 144.97Z"/></g>
<g fill="#F3CEA0FE">
<path d="M 340.81 227.93 C 340.61 227.33 336.64 225.98 331.98 224.92 C 327.31 223.86 322.56 222.78 321.40 222.52 C 319.87 222.17 319.28 221.23 319.22 219.02 C 319.17 217.36 319.60 216.00 320.17 216.00 C 320.75 216.00 320.93 215.26 320.58 214.36 C 320.06 212.99 320.21 212.93 321.46 213.97 C 322.32 214.68 324.04 214.96 325.43 214.61 C 326.79 214.27 328.18 214.48 328.55 215.08 C 328.92 215.68 330.07 215.95 331.11 215.68 C 332.15 215.41 333.26 215.62 333.59 216.14 C 333.91 216.67 334.92 217.03 335.84 216.94 C 340.68 216.50 342.84 218.94 342.09 224.00 C 341.97 224.82 341.87 226.29 341.87 227.25 C 341.88 229.22 341.35 229.55 340.81 227.93Z"/></g>
<g fill="#F3CEA0FE">
<path d="M 251.50 136.82 C 250.40 136.21 249.34 135.57 249.14 135.41 C 248.27 134.70 248.18 123.01 249.04 122.48 C 250.32 121.68 250.27 120.00 248.95 120.00 C 248.38 120.00 247.27 121.46 246.49 123.25 C 245.71 125.04 245.06 125.78 245.04 124.91 C 245.02 124.04 246.24 121.70 247.75 119.71 C 250.06 116.68 251.00 116.16 253.65 116.46 C 257.62 116.92 260.59 118.48 261.38 120.54 C 261.71 121.41 262.43 121.85 262.98 121.51 C 264.11 120.81 263.23 123.80 261.74 125.72 C 261.01 126.68 260.18 126.63 257.96 125.48 C 256.39 124.67 254.87 124.40 254.57 124.89 C 254.27 125.38 255.02 126.03 256.25 126.35 C 258.45 126.93 258.45 126.95 256.49 128.44 C 255.32 129.32 255.03 129.95 255.79 129.97 C 256.74 129.99 256.81 130.49 256.04 131.93 C 255.47 133.00 255.00 134.80 255.00 135.93 C 255.00 138.26 254.37 138.42 251.50 136.82Z"/></g>
<g fill="#F8AB55FF">
<path d="M 169.19 161.44 C 167.57 159.61 168.01 154.40 169.75 154.75 C 171.46 155.09 171.32 153.41 169.38 150.46 C 166.95 146.76 169.86 147.20 173.56 151.10 C 176.28 153.97 176.88 154.16 181.64 153.68 C 187.16 153.13 192.13 151.02 195.78 147.68 L 198.06 145.59 L 197.81 148.91 C 197.66 150.86 196.92 152.42 196.03 152.69 C 195.19 152.94 193.72 153.56 192.76 154.07 C 191.81 154.58 189.74 155.00 188.18 155.00 C 186.12 155.00 184.33 156.11 181.74 159.00 C 178.71 162.37 177.54 162.99 174.32 162.96 C 172.22 162.94 169.91 162.25 169.19 161.44Z"/></g>
<g fill="#F3CEA0FE">
<path d="M 234.18 220.14 L 234.00 215.78 L 220.75 216.14 L 207.50 216.50 L 207.20 213.87 C 206.93 211.55 207.33 211.16 210.70 210.48 C 212.79 210.06 218.70 209.63 223.83 209.51 C 232.98 209.30 233.18 209.35 234.13 211.83 C 234.66 213.23 234.93 216.65 234.73 219.44 L 234.37 224.50 L 234.18 220.14Z"/></g>
<g fill="#F8AB55FF">
<path d="M 157.00 193.30 C 157.00 192.85 157.90 191.92 159.00 191.23 C 161.23 189.84 161.39 189.17 160.04 187.03 C 159.25 185.78 158.72 185.91 156.64 187.87 C 153.03 191.26 150.57 190.37 150.18 185.52 C 149.86 181.60 149.87 181.58 151.88 183.39 C 153.60 184.95 154.40 185.06 157.13 184.10 C 159.91 183.13 160.64 183.25 162.49 184.99 C 164.76 187.13 167.00 187.64 167.00 186.03 C 167.00 185.49 168.35 184.36 169.99 183.50 C 172.34 182.29 173.13 181.07 173.64 177.83 C 174.25 174.06 174.42 173.86 175.65 175.54 C 177.16 177.60 177.48 182.00 176.12 182.00 C 175.63 182.00 175.29 183.91 175.37 186.25 C 175.49 190.10 175.26 190.52 173.00 190.73 C 171.62 190.85 169.38 191.19 168.00 191.47 C 166.62 191.75 164.00 192.21 162.17 192.48 C 160.34 192.76 158.43 193.24 157.92 193.55 C 157.41 193.86 157.00 193.75 157.00 193.30Z"/></g>
<g fill="#F3CEA0FE">
<path d="M 325.80 122.34 C 320.60 120.91 324.04 112.93 330.30 111.92 C 333.51 111.39 333.79 111.52 332.95 113.10 C 330.15 118.33 333.62 118.27 338.38 113.00 C 342.48 108.46 341.99 108.67 345.58 110.03 L 348.29 111.06 L 346.25 113.28 C 345.12 114.50 344.04 116.40 343.84 117.50 C 343.60 118.87 342.54 119.61 340.49 119.84 C 338.85 120.02 337.05 120.54 336.50 120.98 C 335.19 122.02 327.97 122.94 325.80 122.34Z"/></g>
<g fill="#F8AB55FF">
<path d="M 281.00 185.37 C 280.18 185.24 276.99 184.85 273.93 184.51 C 269.02 183.97 268.36 183.64 268.43 181.72 C 268.47 180.46 267.87 179.49 267.00 179.42 C 263.52 179.15 262.90 178.90 261.00 177.00 C 259.90 175.90 259.00 174.08 259.00 172.96 L 259.00 170.92 L 261.19 172.96 C 262.76 174.42 264.73 175.00 268.14 175.00 C 271.80 175.00 273.45 175.54 275.24 177.34 C 276.85 178.94 279.25 179.87 282.92 180.30 C 288.06 180.91 293.00 183.15 293.00 184.88 C 293.00 185.64 284.65 185.98 281.00 185.37Z"/></g>
<g fill="#F3CEA0FE">
<path d="M 288.50 218.00 C 286.85 217.55 281.16 216.87 275.85 216.50 L 266.20 215.83 L 265.81 212.49 L 265.42 209.16 L 276.46 209.72 C 282.53 210.03 288.40 210.33 289.50 210.39 C 291.13 210.48 291.56 211.30 291.79 214.75 C 291.95 217.09 291.95 218.96 291.79 218.91 C 291.63 218.86 290.15 218.45 288.50 218.00Z"/></g>
<g fill="#F3CEA0FE">
<path d="M 323.40 161.47 C 322.49 157.83 323.87 155.06 327.33 153.64 C 330.37 152.38 330.52 152.43 331.01 154.90 C 331.29 156.33 332.32 157.63 333.33 157.83 C 334.85 158.12 335.10 157.61 334.83 154.84 C 334.53 151.84 334.78 151.47 337.25 151.18 C 339.21 150.96 340.00 151.31 340.00 152.43 C 340.00 153.62 341.07 154.00 344.35 154.00 C 348.82 154.00 352.07 156.18 351.93 159.08 C 351.89 159.89 351.41 159.55 350.81 158.31 C 349.29 155.17 347.49 154.82 344.57 157.12 C 343.17 158.23 341.60 158.87 341.08 158.55 C 340.56 158.23 339.36 159.27 338.42 160.87 C 336.93 163.39 336.33 163.67 333.92 162.98 C 332.39 162.54 329.53 162.54 327.56 162.99 C 324.34 163.71 323.93 163.57 323.40 161.47Z"/></g>
<g fill="#F3CEA0FE">
<path d="M 156.40 225.41 C 156.75 224.49 156.54 223.15 155.94 222.43 C 153.64 219.66 156.76 217.22 163.00 216.91 C 163.82 216.87 165.18 216.57 166.00 216.24 C 170.79 214.37 177.19 214.54 178.69 216.60 C 180.11 218.53 180.50 222.43 179.20 221.62 C 178.27 221.05 161.61 224.54 158.13 226.04 C 156.11 226.91 155.85 226.82 156.40 225.41Z"/></g>
<g fill="#F3CEA0FE">
<path d="M 173.92 426.66 C 173.75 424.29 172.83 419.59 171.64 415.00 C 171.29 413.62 170.76 410.70 170.46 408.50 C 170.17 406.30 169.72 403.49 169.46 402.25 C 169.03 400.13 168.79 398.93 167.45 392.25 C 167.15 390.74 166.78 388.60 166.62 387.50 C 166.47 386.40 166.08 384.82 165.76 384.00 C 165.44 383.18 164.90 380.95 164.57 379.06 L 163.98 375.63 L 166.52 378.02 C 167.92 379.33 168.85 380.94 168.60 381.60 C 168.35 382.26 168.44 383.11 168.82 383.49 C 169.19 383.86 169.59 385.14 169.70 386.33 C 169.88 388.32 170.12 389.63 171.61 397.00 C 171.89 398.38 172.29 400.62 172.50 402.00 C 172.98 405.13 173.85 409.81 174.50 412.75 C 175.17 415.77 176.03 420.06 176.45 422.50 C 176.64 423.60 176.96 425.12 177.15 425.87 C 177.34 426.62 176.71 427.37 175.75 427.53 C 174.79 427.69 173.96 427.30 173.92 426.66Z"/></g>
<g fill="#F8AB55FF">
<path d="M 303.73 126.54 C 302.20 125.74 300.74 125.07 300.48 125.05 C 300.21 125.02 299.66 124.95 299.25 124.88 C 298.84 124.82 297.80 124.83 296.95 124.91 C 296.07 125.00 294.65 123.50 293.69 121.48 C 292.75 119.51 291.54 118.17 290.99 118.51 C 290.45 118.84 290.00 118.61 290.00 118.00 C 290.00 117.39 289.66 117.08 289.25 117.32 C 288.84 117.56 287.47 116.18 286.22 114.26 C 284.45 111.55 284.30 110.90 285.55 111.38 C 286.44 111.72 288.48 112.00 290.08 112.00 C 292.26 112.00 293.00 112.47 293.00 113.87 C 293.00 116.72 296.69 120.77 299.93 121.48 C 301.91 121.92 304.12 121.47 306.88 120.06 C 312.39 117.25 315.00 117.35 315.00 120.37 C 315.00 122.02 313.80 123.53 311.02 125.37 C 306.34 128.46 307.16 128.33 303.73 126.54Z"/></g>
<g fill="#F8AB55FF">
<path d="M 155.48 155.06 C 155.82 154.01 156.23 149.12 156.41 144.20 C 156.58 139.28 157.01 134.80 157.36 134.22 C 157.71 133.65 160.04 132.49 162.53 131.65 C 167.31 130.02 167.35 130.14 163.68 135.18 C 161.04 138.80 161.18 150.58 163.90 153.30 C 165.03 154.43 164.22 157.00 162.72 157.00 C 162.14 157.00 160.83 156.26 159.83 155.35 C 158.82 154.43 158.00 154.16 158.00 154.74 C 158.00 155.31 157.30 156.06 156.43 156.39 C 155.25 156.84 155.02 156.52 155.48 155.06Z"/></g>
<g fill="#FBF6F3FF">
<path d="M 290.25 181.05 C 287.05 177.47 286.00 175.48 286.00 172.97 C 286.00 170.90 285.16 168.73 283.78 167.27 C 282.05 165.42 281.80 164.54 282.64 163.21 C 283.23 162.27 284.57 161.34 285.61 161.13 C 286.65 160.93 287.75 160.37 288.06 159.88 C 288.37 159.40 289.49 159.64 290.56 160.42 C 292.96 162.18 293.09 169.73 290.77 173.20 C 289.31 175.39 289.43 175.71 293.12 179.73 C 295.25 182.05 297.00 184.42 297.00 184.98 C 297.00 187.16 294.32 185.60 290.25 181.05Z"/></g>
<g fill="#EE2F3CFF">
<path d="M 192.00 313.10 C 192.00 308.13 192.04 308.06 194.40 309.14 C 197.47 310.54 206.31 307.78 209.73 304.36 C 211.03 303.06 212.22 302.00 212.37 302.00 C 212.52 302.00 212.74 304.24 212.87 306.97 C 213.08 311.67 212.95 311.97 210.30 312.55 C 207.28 313.20 195.30 316.78 193.25 317.64 C 192.35 318.02 192.00 316.77 192.00 313.10Z"/></g>
<g fill="#F8AB55FF">
<path d="M 369.25 200.51 C 367.46 199.73 366.00 199.35 366.00 199.67 C 366.00 199.99 365.44 199.78 364.75 199.21 C 364.06 198.64 363.16 198.13 362.75 198.09 C 362.34 198.04 361.89 197.97 361.75 197.92 C 361.61 197.88 360.74 197.70 359.81 197.52 C 358.88 197.34 354.93 196.37 351.02 195.36 C 345.00 193.81 344.17 193.35 345.57 192.32 C 347.10 191.21 347.07 190.90 345.16 188.47 C 343.48 186.34 343.30 185.49 344.24 183.98 C 345.71 181.63 346.59 182.18 347.34 185.95 C 348.22 190.35 351.50 193.19 355.32 192.88 C 357.44 192.70 359.86 193.52 362.61 195.35 C 364.87 196.85 368.29 198.33 370.20 198.65 C 373.16 199.13 374.01 198.80 375.84 196.47 C 378.25 193.41 378.65 190.43 376.75 189.66 C 376.06 189.38 376.51 189.12 377.75 189.08 C 380.08 189.00 380.22 189.18 380.27 192.50 C 380.34 196.67 379.88 197.56 376.50 199.75 C 374.59 200.99 372.91 201.98 372.76 201.96 C 372.62 201.94 371.04 201.29 369.25 200.51Z"/></g>
<g fill="#F8AB55FF">
<path d="M 133.21 179.32 C 132.19 178.92 132.17 178.49 133.12 177.35 C 134.11 176.16 133.65 175.23 130.62 172.28 C 126.84 168.62 125.92 164.17 128.75 163.24 C 129.52 162.99 129.78 163.41 129.42 164.34 C 128.64 166.38 130.56 169.73 132.96 170.49 C 136.30 171.55 139.00 169.34 139.00 165.54 C 139.00 162.59 139.38 162.07 142.03 161.49 C 143.72 161.12 146.23 159.35 147.72 157.48 C 149.19 155.64 150.76 154.35 151.20 154.62 C 153.05 155.76 151.73 158.09 147.65 160.90 C 145.26 162.54 142.54 165.05 141.61 166.47 C 140.12 168.75 139.73 170.58 139.14 178.25 C 139.00 179.97 136.12 180.49 133.21 179.32Z"/></g>
<g fill="#EE2F3CFF">
<path d="M 294.20 274.80 C 293.54 274.14 293.00 272.21 293.00 270.50 C 293.00 264.79 295.96 263.74 303.05 266.91 C 306.12 268.29 307.99 268.58 309.66 267.94 C 311.77 267.14 312.00 267.33 312.00 269.89 C 312.00 272.36 311.69 272.66 309.54 272.25 C 308.08 271.97 305.71 272.64 303.68 273.89 C 299.87 276.24 296.01 276.61 294.20 274.80Z"/></g>
<g fill="#F8AB55FF">
<path d="M 300.00 161.00 C 300.00 160.45 300.63 160.00 301.39 160.00 C 303.20 160.00 307.69 156.36 306.88 155.55 C 306.54 155.21 305.11 155.45 303.70 156.09 C 300.36 157.61 296.30 156.54 295.47 153.90 C 294.64 151.28 296.66 148.83 297.94 150.90 C 298.44 151.71 299.67 152.06 300.90 151.74 C 302.05 151.44 303.25 151.60 303.56 152.09 C 304.27 153.25 308.71 153.28 309.42 152.13 C 309.71 151.65 311.73 150.98 313.91 150.63 C 316.50 150.22 318.58 149.08 319.96 147.33 C 321.56 145.29 322.33 144.93 323.23 145.83 C 324.12 146.72 323.90 147.65 322.31 149.75 C 320.50 152.12 319.60 152.47 315.68 152.26 C 311.31 152.04 311.10 152.16 310.00 155.51 C 309.36 157.43 307.88 159.67 306.70 160.50 C 304.28 162.20 300.00 162.52 300.00 161.00Z"/></g>
<g fill="#F8AB55FF">
<path d="M 231.20 125.14 C 230.15 124.48 230.14 123.79 231.14 121.59 C 232.13 119.42 232.13 118.44 231.16 116.88 C 230.12 115.21 230.28 114.46 232.21 112.01 C 233.47 110.41 235.24 109.09 236.13 109.06 C 238.93 108.96 240.85 113.14 240.29 118.10 C 239.88 121.76 239.24 122.90 236.81 124.29 C 233.44 126.23 233.01 126.29 231.20 125.14Z"/></g>
<g fill="#F3CEA0FE">
<path d="M 237.28 177.92 C 237.93 173.08 237.73 173.35 241.50 172.43 C 244.50 171.70 244.50 171.70 242.61 173.83 C 240.44 176.28 240.80 176.51 248.09 177.37 C 250.62 177.67 253.13 177.47 253.68 176.92 C 254.35 176.25 255.33 176.52 256.63 177.71 C 257.70 178.69 258.41 179.43 258.21 179.34 C 258.00 179.24 256.31 179.81 254.45 180.59 C 252.59 181.36 247.84 182.00 243.90 182.00 L 236.74 182.00 L 237.28 177.92Z"/></g>
<g fill="#F8AB55FF">
<path d="M 360.98 171.48 C 359.61 170.02 356.99 168.70 354.75 168.34 C 350.13 167.61 350.80 166.75 357.39 164.98 L 362.28 163.66 L 364.89 166.84 C 367.43 169.93 370.00 171.02 370.00 169.00 C 370.00 168.45 369.44 167.99 368.75 167.97 C 367.99 167.95 368.18 167.42 369.25 166.61 C 370.21 165.88 371.00 164.09 371.00 162.64 C 371.00 161.19 371.45 160.00 372.00 160.00 C 372.55 160.00 373.00 161.32 373.00 162.94 C 373.00 164.56 372.55 166.16 372.00 166.50 C 371.45 166.84 371.00 167.88 370.99 168.81 C 370.99 170.30 366.07 174.00 364.09 174.00 C 363.68 174.00 362.28 172.87 360.98 171.48Z"/></g>
<g fill="#FBF6F3FF">
<path d="M 344.88 171.50 C 344.71 170.85 344.51 170.12 343.52 166.58 C 342.84 164.18 343.10 163.34 344.96 161.83 C 346.20 160.82 348.30 160.00 349.61 160.00 C 350.95 160.00 352.00 159.41 352.00 158.65 C 352.00 156.12 348.43 154.00 344.17 154.00 C 341.88 154.00 340.00 153.55 340.00 153.00 C 340.00 152.45 341.98 152.00 344.39 152.00 C 347.86 152.00 349.44 152.61 351.89 154.90 C 353.60 156.50 355.00 158.30 355.00 158.91 C 355.00 160.30 350.24 164.50 348.67 164.50 C 347.49 164.50 347.35 164.95 347.12 169.50 C 347.02 171.59 345.28 173.13 344.88 171.50Z"/></g>
<g fill="#F8AB55FF">
<path d="M 227.71 184.38 C 227.37 184.04 227.73 183.13 228.50 182.36 C 229.27 181.58 230.21 178.26 230.58 174.98 C 231.18 169.70 231.62 168.78 234.38 167.07 C 238.65 164.42 241.37 159.58 240.63 155.91 C 240.22 153.83 240.44 153.00 241.42 153.00 C 242.42 153.00 242.78 154.49 242.75 158.54 C 242.71 164.33 242.37 164.79 235.50 168.61 C 233.90 169.50 233.47 170.86 233.35 175.42 C 233.17 181.98 230.14 186.80 227.71 184.38Z"/></g>
<g fill="#FBF6F3FF">
<path d="M 177.20 124.80 C 173.75 121.35 177.67 115.84 185.08 113.69 C 189.37 112.46 189.52 112.28 190.05 107.71 C 190.68 102.21 192.33 99.92 194.25 101.87 C 195.25 102.88 195.17 103.38 193.82 104.38 C 192.88 105.07 192.00 107.34 191.82 109.56 C 191.56 112.73 191.07 113.56 189.31 113.81 C 186.53 114.21 180.00 121.36 180.00 124.00 C 180.00 126.27 178.96 126.56 177.20 124.80Z"/></g>
<g fill="#FBF6F3FF">
<path d="M 273.10 143.52 C 268.55 135.46 269.12 133.00 275.51 133.00 C 278.52 133.00 279.50 135.94 278.01 140.47 C 277.22 142.85 277.19 144.49 277.90 145.82 C 278.89 147.66 278.48 149.00 276.93 149.00 C 276.52 149.00 274.80 146.53 273.10 143.52Z"/></g>
<g fill="#F8AB55FF">
<path d="M 241.25 136.33 C 240.01 135.46 239.00 134.02 239.00 133.12 C 239.00 132.21 240.01 131.03 241.25 130.49 C 242.49 129.94 244.52 127.36 245.77 124.75 C 247.02 122.14 248.48 120.00 249.02 120.00 C 250.28 120.00 250.29 121.70 249.03 122.48 C 248.49 122.81 248.24 125.97 248.47 129.54 C 248.82 135.07 248.61 136.14 247.00 137.00 C 244.59 138.29 243.96 138.22 241.25 136.33Z"/></g>
<g fill="#FBF6F3FF">
<path d="M 202.64 165.72 C 201.68 165.02 200.51 162.74 200.04 160.66 C 199.33 157.52 199.47 156.78 200.84 156.35 C 205.47 154.91 207.00 153.87 207.00 152.16 C 207.00 149.19 210.85 145.00 213.57 145.00 C 216.78 145.00 216.64 146.19 213.20 148.22 C 209.19 150.59 204.52 159.87 205.33 163.88 C 206.00 167.26 205.35 167.71 202.64 165.72Z"/></g>
<g fill="#F8AB55FF">
<path d="M 282.02 134.40 C 282.00 133.32 275.75 126.26 275.25 126.75 C 274.44 127.55 268.98 126.84 269.50 126.00 C 270.25 124.79 274.99 124.70 276.81 125.86 C 278.58 126.99 284.84 124.07 285.57 121.79 C 286.04 120.30 286.50 120.19 288.32 121.14 C 289.52 121.76 290.68 122.42 290.89 122.61 C 291.11 122.80 289.41 124.78 287.11 127.01 C 284.81 129.24 283.14 131.41 283.40 131.83 C 283.66 132.25 283.45 133.25 282.95 134.05 C 282.44 134.85 282.02 135.00 282.02 134.40Z"/></g>
<g fill="#F8AB55FF">
<path d="M 229.76 145.46 C 230.05 143.93 231.12 143.03 233.10 142.63 C 236.65 141.92 236.74 140.67 233.50 136.82 C 232.12 135.18 231.00 132.68 231.00 131.25 L 231.00 128.65 L 233.46 130.96 C 234.81 132.23 235.88 133.54 235.84 133.88 C 235.61 135.77 236.29 136.74 238.94 138.30 C 240.96 139.50 241.76 140.66 241.50 142.02 C 240.85 145.38 239.91 146.14 237.15 145.55 C 235.69 145.24 233.34 145.60 231.92 146.35 C 229.47 147.63 229.36 147.59 229.76 145.46Z"/></g>
<g fill="#FBF6F3FF">
<path d="M 148.01 191.51 C 147.33 190.69 146.42 190.24 145.98 190.51 C 145.54 190.78 145.41 190.16 145.68 189.13 C 145.95 188.09 145.23 185.41 144.08 183.16 C 141.47 178.05 141.48 177.46 144.18 177.26 C 147.20 177.03 148.93 179.74 148.97 184.77 C 148.99 188.30 149.40 189.20 151.30 189.92 C 152.57 190.41 154.93 190.59 156.55 190.34 L 159.50 189.89 L 157.00 191.41 C 153.78 193.36 149.59 193.41 148.01 191.51Z"/></g>
<g fill="#F8AB55FF">
<path d="M 240.89 184.14 C 235.80 183.56 235.36 183.32 236.07 181.50 C 236.51 180.40 236.89 180.06 236.93 180.75 C 237.03 182.45 250.48 182.35 254.50 180.62 C 257.04 179.53 258.00 179.57 260.73 180.91 C 264.73 182.88 264.88 184.00 261.15 184.00 C 259.58 184.00 255.64 184.18 252.40 184.39 C 249.15 184.60 243.98 184.49 240.89 184.14Z"/></g>
<g fill="#EE2F3CFF">
<path d="M 251.28 341.48 C 248.90 339.82 247.78 335.28 249.13 332.76 C 250.39 330.40 254.67 330.51 255.96 332.93 C 258.93 338.48 255.62 344.52 251.28 341.48Z"/></g>
<g fill="#EE2F3CFF">
<path d="M 290.96 334.45 C 290.21 333.55 289.60 331.25 289.60 329.34 C 289.60 323.57 294.38 322.22 296.81 327.30 C 299.44 332.78 294.54 338.77 290.96 334.45Z"/></g>
<g fill="#FBF6F3FF">
<path d="M 363.83 161.10 C 363.18 160.05 362.07 159.42 361.36 159.69 C 360.23 160.13 356.01 154.68 356.00 152.77 C 356.00 152.37 357.17 151.74 358.61 151.38 C 361.51 150.65 362.96 152.09 362.98 155.72 C 362.99 157.15 363.47 157.76 364.33 157.43 C 365.06 157.15 366.88 157.38 368.37 157.95 C 370.70 158.83 370.93 159.27 370.01 160.99 C 368.65 163.53 365.38 163.59 363.83 161.10Z"/></g>
<g fill="#F3CEA0FE">
<path d="M 364.93 166.90 C 362.68 163.74 361.16 163.52 355.50 165.59 C 353.64 166.27 353.65 166.15 355.75 163.85 C 356.99 162.48 358.00 160.56 358.00 159.56 C 358.00 158.06 358.25 157.97 359.52 159.02 C 360.36 159.72 361.33 160.00 361.68 159.65 C 362.03 159.30 362.95 159.91 363.72 161.01 C 364.49 162.10 365.97 163.00 367.02 163.00 C 369.09 163.00 371.38 159.76 370.21 158.47 C 369.82 158.04 369.99 157.96 370.58 158.30 C 372.10 159.16 371.03 165.25 369.10 166.72 C 368.05 167.52 367.93 167.95 368.75 167.97 C 370.50 168.01 370.32 170.00 368.57 170.00 C 367.78 170.00 366.14 168.61 364.93 166.90Z"/></g>
<g fill="#FBF6F3FF">
<path d="M 166.16 149.45 C 165.52 148.05 165.00 144.86 165.00 142.35 C 165.00 138.51 165.53 137.27 168.40 134.40 C 171.10 131.70 172.59 131.00 175.65 131.02 C 177.77 131.02 180.18 131.47 181.00 132.00 C 182.14 132.73 181.70 132.97 179.20 132.98 C 174.47 133.01 170.52 135.39 168.63 139.36 C 166.76 143.31 166.60 145.80 167.98 149.43 C 169.24 152.77 167.68 152.78 166.16 149.45Z"/></g>
<g fill="#FBF6F3FF">
<path d="M 219.90 181.72 C 217.31 179.98 216.42 178.61 216.18 175.97 C 215.77 171.53 214.15 169.73 213.34 172.81 C 212.68 175.33 210.68 175.25 210.18 172.68 C 209.98 171.67 210.90 170.55 212.54 169.80 C 214.86 168.74 215.40 168.83 216.61 170.48 C 217.37 171.53 218.00 173.59 218.00 175.07 C 218.00 178.25 222.42 180.61 226.48 179.59 C 229.45 178.85 229.74 180.02 227.17 182.35 C 224.78 184.51 223.95 184.44 219.90 181.72Z"/></g>
<g fill="#FBF6F3FF">
<path d="M 147.47 139.95 C 147.14 139.42 147.58 138.72 148.44 138.39 C 150.57 137.57 150.41 136.74 147.50 133.59 C 144.47 130.32 144.25 126.47 147.01 124.99 C 148.65 124.11 149.13 124.25 149.56 125.71 C 149.85 126.69 150.95 129.23 152.02 131.35 C 153.85 135.01 153.86 135.32 152.22 137.56 C 150.19 140.34 148.30 141.29 147.47 139.95Z"/></g>
<g fill="#F8AB55FF">
<path d="M 294.34 174.25 C 294.60 172.74 295.09 170.79 295.44 169.92 C 295.79 169.05 295.60 167.09 295.02 165.56 C 294.08 163.08 294.16 162.85 295.73 163.48 C 296.70 163.87 298.10 164.29 298.84 164.42 C 299.70 164.56 300.30 166.41 300.50 169.53 C 300.82 174.70 299.40 176.90 295.69 176.97 C 294.27 176.99 293.98 176.41 294.34 174.25Z"/></g>
</svg>
