<svg id="visual" viewBox="0 0 1920 1080" width="1920" height="1080" xmlns="http://www.w3.org/2000/svg" xmlns:xlink="http://www.w3.org/1999/xlink" version="1.1"><path d="M0 944L32 937C64 930 128 916 192 911.7C256 907.3 320 912.7 384 919.5C448 926.3 512 934.7 576 930.3C640 926 704 909 768 897.8C832 886.7 896 881.3 960 881.3C1024 881.3 1088 886.7 1152 902C1216 917.3 1280 942.7 1344 956.3C1408 970 1472 972 1536 964C1600 956 1664 938 1728 926.3C1792 914.7 1856 909.3 1888 906.7L1920 904L1920 1081L1888 1081C1856 1081 1792 1081 1728 1081C1664 1081 1600 1081 1536 1081C1472 1081 1408 1081 1344 1081C1280 1081 1216 1081 1152 1081C1088 1081 1024 1081 960 1081C896 1081 832 1081 768 1081C704 1081 640 1081 576 1081C512 1081 448 1081 384 1081C320 1081 256 1081 192 1081C128 1081 64 1081 32 1081L0 1081Z" fill="#FF0066" stroke-linecap="round" stroke-linejoin="miter"></path></svg>